<svg xmlns="http://www.w3.org/2000/svg" width="65" height="65"><g data-name="グループ 8720"><path data-name="パス 6697" d="M32.5 0A32.5 32.5 0 110 32.5 32.5 32.5 0 0132.5 0z" fill="#fff"/><path data-name="パス 6697 - アウトライン" d="M32.5 1a31.509 31.509 0 00-12.261 60.525 31.508 31.508 0 0024.522-58.05A31.3 31.3 0 0032.5 1m0-1A32.5 32.5 0 110 32.5 32.5 32.5 0 0132.5 0z" fill="#dae5f3"/><g fill="#0d5bab"><path data-name="パス 5381" d="M43.894 21.105a8.145 8.145 0 00-11.5 0l-4.437 4.435 11.5 11.5 4.435-4.435a8.131 8.131 0 00.002-11.5z"/><path data-name="パス 5382" d="M21.106 32.39a8.132 8.132 0 1011.5 11.5l4.432-4.432-11.5-11.5z"/></g></g></svg>