<svg xmlns="http://www.w3.org/2000/svg" width="65" height="65"><g data-name="グループ 8721" transform="translate(-527.287 -2458)"><circle data-name="楕円形 3" cx="32.5" cy="32.5" r="32.5" transform="translate(527.287 2458)" fill="#fff"/><path data-name="楕円形 3 - アウトライン" d="M559.787 2459a31.509 31.509 0 00-12.261 60.525 31.508 31.508 0 0024.522-58.05 31.3 31.3 0 00-12.261-2.475m0-1a32.5 32.5 0 11-32.5 32.5 32.5 32.5 0 0132.5-32.5z" fill="#dae5f3"/><g data-name="グループ 7220" fill="#0d5bab"><path data-name="パス 5396" d="M564.607 2479.464a1.221 1.221 0 00-1.728 0l-14.055 14.054a1.222 1.222 0 000 1.728l6.218 6.218a1.222 1.222 0 001.728 0l14.055-14.055a1.221 1.221 0 000-1.728z"/><path data-name="パス 5397" d="M542.507 2499.348a.667.667 0 000 1.273l3.054.948-.844 3.181a.667.667 0 00.816.816l3.181-.844.947 3.054a.667.667 0 001.273 0l2.149-6.746-3.83-3.831z"/><path data-name="パス 5398" d="M577.064 2480.377l-3.054-.948.845-3.176a.667.667 0 00-.816-.816l-3.181.844-.948-3.058a.667.667 0 00-1.273 0l-2.149 6.741 3.835 3.835 6.746-2.146a.667.667 0 000-1.273z"/></g></g></svg>