<svg xmlns="http://www.w3.org/2000/svg" width="65" height="65"><g data-name="グループ 8722" transform="translate(-905.147 -2458)"><circle data-name="楕円形 3" cx="32.5" cy="32.5" r="32.5" transform="translate(905.147 2458)" fill="#fff"/><path data-name="楕円形 3 - アウトライン" d="M937.647 2459a31.509 31.509 0 00-12.261 60.525 31.508 31.508 0 0024.522-58.05 31.3 31.3 0 00-12.261-2.475m0-1a32.5 32.5 0 11-32.5 32.5 32.5 32.5 0 0132.5-32.5z" fill="#dae5f3"/><g fill="#0d5bab"><path data-name="長方形 22970" d="M927.419 2469.536h20.457v1.971h-20.457z"/><path data-name="パス 5376" d="M942.525 2502.307h-.472a.027.027 0 00-.03.03v.663a.026.026 0 00.03.03h.472a.364.364 0 100-.724z"/><path data-name="パス 5377" d="M932.864 2503.538h-.4a.027.027 0 00-.03.03v.708a.027.027 0 00.03.03h.4c.276 0 .417-.136.417-.387 0-.235-.141-.381-.417-.381z"/><path data-name="パス 5378" d="M932.819 2502.929c.266 0 .407-.115.407-.351s-.136-.351-.407-.351h-.357a.026.026 0 00-.03.03v.643a.026.026 0 00.03.03h.357z"/><path data-name="パス 5379" d="M940.717 2480.876a7.891 7.891 0 103.471 2.859 7.867 7.867 0 00-3.471-2.859z"/><path data-name="パス 5380" d="M949.843 2475.78c-.329-.574-2.465-3.369-2.465-3.369h-19.462s-2.132 2.795-2.464 3.369-.247.822-.247 1.643v27.276c0 1.068.3 2.429 1.068 2.793 1.552.74.977 1.972 2.629 1.972h17.49c1.652 0 1.077-1.232 2.629-1.972.763-.364 1.063-1.725 1.063-2.793s.087-28.344-.241-28.919zm-3.817 18.015a10.12 10.12 0 111.726-5.651 10.139 10.139 0 01-1.726 5.651z"/></g></g></svg>