<svg xmlns="http://www.w3.org/2000/svg" xmlns:xlink="http://www.w3.org/1999/xlink" width="98" height="98" viewBox="0 0 98 98">
  <defs>
    <clipPath id="clip-path">
      <rect id="長方形_23002" data-name="長方形 23002" width="98" height="98" transform="translate(179 4551)" fill="#fff" stroke="#707070" stroke-width="1" opacity="0.488"/>
    </clipPath>
    <clipPath id="clip-path-2">
      <rect id="長方形_22880" data-name="長方形 22880" width="88" height="88" transform="translate(440 4394)" fill="#fff" stroke="#707070" stroke-width="1"/>
    </clipPath>
  </defs>
  <g id="マスクグループ_62" data-name="マスクグループ 62" transform="translate(-179 -4551)" clip-path="url(#clip-path)">
    <g id="マスクグループ_7" data-name="マスクグループ 7" transform="translate(-261 161.609)" clip-path="url(#clip-path-2)">
      <g id="グループ_5334" data-name="グループ 5334" transform="translate(-352 4373.2)">
        <g id="グループ_5333" data-name="グループ 5333">
          <g id="グループ_5331" data-name="グループ 5331">
            <g id="グループ_5330" data-name="グループ 5330">
              <g id="グループ_5329" data-name="グループ 5329">
                <path id="パス_3267" data-name="パス 3267" d="M867,95.5h-2V52.6H852.6v-2H866a1,1,0,0,1,1,1Z"/>
                <g id="グループ_5326" data-name="グループ 5326">
                  <path id="線_926" data-name="線 926" d="M3,1H0A1,1,0,0,1-1,0,1,1,0,0,1,0-1H3A1,1,0,0,1,4,0,1,1,0,0,1,3,1Z" transform="translate(855.4 60.4)"/>
                  <path id="線_927" data-name="線 927" d="M3,1H0A1,1,0,0,1-1,0,1,1,0,0,1,0-1H3A1,1,0,0,1,4,0,1,1,0,0,1,3,1Z" transform="translate(855.4 69.2)"/>
                  <path id="線_928" data-name="線 928" d="M3,1H0A1,1,0,0,1-1,0,1,1,0,0,1,0-1H3A1,1,0,0,1,4,0,1,1,0,0,1,3,1Z" transform="translate(855.4 78)"/>
                  <path id="線_929" data-name="線 929" d="M3,1H0A1,1,0,0,1-1,0,1,1,0,0,1,0-1H3A1,1,0,0,1,4,0,1,1,0,0,1,3,1Z" transform="translate(855.4 86.7)"/>
                </g>
                <g id="グループ_5327" data-name="グループ 5327">
                  <path id="線_930" data-name="線 930" d="M2.8,1H0V-1H2.8Z" transform="translate(852.6 60.4)"/>
                  <path id="線_931" data-name="線 931" d="M2.8,1H0V-1H2.8Z" transform="translate(852.6 69.2)"/>
                  <path id="線_932" data-name="線 932" d="M2.8,1H0V-1H2.8Z" transform="translate(852.6 78)"/>
                  <path id="線_933" data-name="線 933" d="M2.8,1H0V-1H2.8Z" transform="translate(852.6 86.7)"/>
                </g>
                <path id="線_934" data-name="線 934" d="M0,55.6a3,3,0,0,1-3-3V0A3,3,0,0,1,0-3,3,3,0,0,1,3,0V52.6A3,3,0,0,1,0,55.6Z" transform="translate(848.6 42.9)" fill="#fff"/>
                <g id="グループ_5328" data-name="グループ 5328">
                  <path id="線_935" data-name="線 935" d="M22.3,1H0A1,1,0,0,1-1,0,1,1,0,0,1,0-1H22.3a1,1,0,0,1,1,1A1,1,0,0,1,22.3,1Z" transform="translate(816.9 51.6)"/>
                  <path id="線_936" data-name="線 936" d="M22.3,1H0A1,1,0,0,1-1,0,1,1,0,0,1,0-1H22.3a1,1,0,0,1,1,1A1,1,0,0,1,22.3,1Z" transform="translate(816.9 60.4)"/>
                  <path id="線_937" data-name="線 937" d="M22.3,1H0A1,1,0,0,1-1,0,1,1,0,0,1,0-1H22.3a1,1,0,0,1,1,1A1,1,0,0,1,22.3,1Z" transform="translate(816.9 69.2)"/>
                  <path id="線_938" data-name="線 938" d="M22.3,1H0A1,1,0,0,1-1,0,1,1,0,0,1,0-1H22.3a1,1,0,0,1,1,1A1,1,0,0,1,22.3,1Z" transform="translate(816.9 78)"/>
                </g>
                <path id="パス_3268" data-name="パス 3268" d="M823.2,95.5h-2V86.7a1,1,0,0,1,1-1h11.7v2H823.2Z"/>
              </g>
              <path id="線_939" data-name="線 939" d="M72.6,1H0A1,1,0,0,1-1,0,1,1,0,0,1,0-1H72.6a1,1,0,0,1,1,1A1,1,0,0,1,72.6,1Z" transform="translate(800.4 99.8)"/>
            </g>
          </g>
          <g id="グループ_5332" data-name="グループ 5332">
            <path id="パス_3269" data-name="パス 3269" d="M849.6,95.5h-2V43.9h-8.4a1,1,0,0,1-1-1V36.2H817.9v6.7a1,1,0,0,1-1,1h-8.4V95.5h-2V42.9a1,1,0,0,1,1-1h8.4V35.2a1,1,0,0,1,1-1h22.3a1,1,0,0,1,1,1v6.7h8.4a1,1,0,0,1,1,1Z"/>
          </g>
        </g>
      </g>
    </g>
  </g>
</svg>
