<svg xmlns="http://www.w3.org/2000/svg" xmlns:xlink="http://www.w3.org/1999/xlink" width="98" height="98" viewBox="0 0 98 98">
  <defs>
    <clipPath id="clip-path">
      <rect id="長方形_23001" data-name="長方形 23001" width="98" height="98" transform="translate(744 4551)" fill="#fff" stroke="#707070" stroke-width="1" opacity="0.488"/>
    </clipPath>
  </defs>
  <g id="マスクグループ_63" data-name="マスクグループ 63" transform="translate(-744 -4551)" clip-path="url(#clip-path)">
    <g id="グループ_5325" data-name="グループ 5325" transform="translate(-195.2 4535.609)">
      <g id="グループ_4209" data-name="グループ 4209">
        <g id="グループ_4208" data-name="グループ 4208">
          <path id="線_478" data-name="線 478" d="M10.8,11.7a.9.9,0,0,1-.636-.264L-.636.636a.9.9,0,0,1,0-1.273.9.9,0,0,1,1.273,0l10.8,10.8A.9.9,0,0,1,10.8,11.7Z" transform="translate(951.4 61.9)"/>
          <path id="線_479" data-name="線 479" d="M0,18.3a.9.9,0,0,1-.635-.262.9.9,0,0,1,0-1.273l17.3-17.4a.9.9,0,0,1,1.273,0,.9.9,0,0,1,0,1.273l-17.3,17.4A.9.9,0,0,1,0,18.3Z" transform="translate(953.7 44.6)"/>
          <path id="パス_1498" data-name="パス 1498" d="M989.1,48.2H977.6a6.966,6.966,0,0,1-4.9-2L967,40.6" fill="rgba(0,0,0,0)"/>
          <path id="パス_1498_-_アウトライン" data-name="パス 1498 - アウトライン" d="M989.1,49.1H977.6a7.87,7.87,0,0,1-5.534-2.261l-5.7-5.6a.9.9,0,1,1,1.261-1.284l5.7,5.6.006.006A6.058,6.058,0,0,0,977.6,47.3h11.5a.9.9,0,1,1,0,1.8Z"/>
          <path id="パス_1499" data-name="パス 1499" d="M941.2,63l5.8,5.8,25.9-25.9-5.8-5.8" fill="#fff"/>
          <path id="パス_1499_-_アウトライン" data-name="パス 1499 - アウトライン" d="M947,69.7a.9.9,0,0,1-.636-.264l-5.8-5.8a.9.9,0,1,1,1.273-1.273L947,67.527,971.627,42.9l-5.164-5.164a.9.9,0,1,1,1.273-1.273l5.8,5.8a.9.9,0,0,1,0,1.273l-25.9,25.9A.9.9,0,0,1,947,69.7Z"/>
          <g id="グループ_4206" data-name="グループ 4206">
            <path id="パス_1500" data-name="パス 1500" d="M963.3,71.6l26.6,26.6a4.1,4.1,0,0,0,5.8-5.8l-2.3-2.3" fill="rgba(0,0,0,0)"/>
            <path id="パス_1500_-_アウトライン" data-name="パス 1500 - アウトライン" d="M992.8,100.3a4.968,4.968,0,0,1-3.536-1.464l-26.6-26.6a.9.9,0,1,1,1.273-1.273l26.6,26.6a3.2,3.2,0,1,0,4.527-4.527l-2.3-2.3a.9.9,0,0,1,1.273-1.273l2.3,2.3A5,5,0,0,1,992.8,100.3Z"/>
            <path id="パス_1501" data-name="パス 1501" d="M989.8,86.5l7.1,7.1a4.1,4.1,0,0,0,5.8-5.8L998,83.1" fill="rgba(0,0,0,0)"/>
            <path id="パス_1501_-_アウトライン" data-name="パス 1501 - アウトライン" d="M999.8,95.7a4.968,4.968,0,0,1-3.536-1.464l-7.1-7.1a.9.9,0,0,1,1.273-1.273l7.1,7.1a3.2,3.2,0,0,0,4.527-4.527l-4.7-4.7a.9.9,0,0,1,1.273-1.273l4.7,4.7A5,5,0,0,1,999.8,95.7Z"/>
            <path id="パス_1502" data-name="パス 1502" d="M995.6,80.8l8.2,8.2a4.1,4.1,0,0,0,5.8-5.8l-8.2-8.2" fill="rgba(0,0,0,0)"/>
            <path id="パス_1502_-_アウトライン" data-name="パス 1502 - アウトライン" d="M1006.7,91.1a4.968,4.968,0,0,1-3.536-1.464l-8.2-8.2a.9.9,0,0,1,1.273-1.273l8.2,8.2a3.2,3.2,0,1,0,4.527-4.527l-8.2-8.2a.9.9,0,0,1,1.273-1.273l8.2,8.2A5,5,0,0,1,1006.7,91.1Z"/>
          </g>
          <g id="グループ_4207" data-name="グループ 4207">
            <path id="パス_1503" data-name="パス 1503" d="M983,98.2a4.1,4.1,0,0,1-5.8-5.8l2.3-2.3a4.1,4.1,0,0,1,5.8,5.8Z" fill="#fff"/>
            <path id="パス_1503_-_アウトライン" data-name="パス 1503 - アウトライン" d="M980.1,102.4a7.1,7.1,0,0,1-5.021-12.121l2.3-2.3a7.1,7.1,0,0,1,10.043,10.043l-2.3,2.3A7.054,7.054,0,0,1,980.1,102.4Zm3.079-10.179h-1.557l-2.3,2.3a1.1,1.1,0,0,0,0,1.557l.779.321a1.1,1.1,0,0,0,.779-.321l2.3-2.3A1.1,1.1,0,0,0,983.179,92.221Z" fill="#fff"/>
            <path id="パス_1504" data-name="パス 1504" d="M965.8,80.7a4.1,4.1,0,0,1-5.8-5.8l4.7-4.7a4.1,4.1,0,0,1,5.8,5.8Z" fill="#fff"/>
            <path id="パス_1504_-_アウトライン" data-name="パス 1504 - アウトライン" d="M962.9,84.9a7.1,7.1,0,0,1-5.021-12.121l4.7-4.7a7.1,7.1,0,0,1,10.043,10.043l-4.7,4.7A7.054,7.054,0,0,1,962.9,84.9Zm5.479-12.579h-1.557l-4.7,4.7a1.1,1.1,0,0,0,0,1.557l.779.321a1.1,1.1,0,0,0,.779-.321l4.7-4.7A1.1,1.1,0,0,0,968.379,72.321Z" fill="#fff"/>
            <path id="パス_1505" data-name="パス 1505" d="M983,98.2a4.1,4.1,0,0,1-5.8-5.8l2.3-2.3a4.1,4.1,0,0,1,5.8,5.8Z" fill="#fff"/>
            <path id="パス_1505_-_アウトライン" data-name="パス 1505 - アウトライン" d="M980.1,100.3a5,5,0,0,1-3.536-8.536l2.3-2.3a5,5,0,0,1,7.073,7.073l-2.3,2.3A4.968,4.968,0,0,1,980.1,100.3Zm2.3-10.5a3.18,3.18,0,0,0-2.264.936l-2.3,2.3a3.2,3.2,0,0,0,4.527,4.527l2.3-2.3A3.2,3.2,0,0,0,982.4,89.8Z"/>
            <path id="パス_1506" data-name="パス 1506" d="M965.8,80.7a4.1,4.1,0,0,1-5.8-5.8l4.7-4.7a4.1,4.1,0,0,1,5.8,5.8Z" fill="#fff"/>
            <path id="パス_1506_-_アウトライン" data-name="パス 1506 - アウトライン" d="M962.9,82.8a5,5,0,0,1-3.536-8.536l4.7-4.7a5,5,0,0,1,7.073,7.073l-4.7,4.7A4.968,4.968,0,0,1,962.9,82.8Zm4.7-12.9a3.18,3.18,0,0,0-2.264.936l-4.7,4.7a3.2,3.2,0,0,0,4.527,4.527l4.7-4.7A3.2,3.2,0,0,0,967.6,69.9Z"/>
            <path id="パス_1507" data-name="パス 1507" d="M976,93.6a4.1,4.1,0,0,1-5.8-5.8l4.7-4.7a4.1,4.1,0,0,1,5.8,5.8Z" fill="#fff"/>
            <path id="パス_1507_-_アウトライン" data-name="パス 1507 - アウトライン" d="M973.1,95.7a5,5,0,0,1-3.536-8.536l4.7-4.7a5,5,0,0,1,7.073,7.073l-4.7,4.7A4.968,4.968,0,0,1,973.1,95.7Zm4.7-12.9a3.18,3.18,0,0,0-2.264.936l-4.7,4.7a3.2,3.2,0,0,0,4.527,4.527l4.7-4.7A3.2,3.2,0,0,0,977.8,82.8Z"/>
            <path id="パス_1508" data-name="パス 1508" d="M969,89a4.1,4.1,0,0,1-5.8-5.8l7.1-7.1a4.1,4.1,0,0,1,5.8,5.8Z" fill="#fff"/>
            <path id="パス_1508_-_アウトライン" data-name="パス 1508 - アウトライン" d="M966.1,91.1a5,5,0,0,1-3.536-8.536l7.1-7.1a5,5,0,0,1,7.073,7.073l-7.1,7.1A4.968,4.968,0,0,1,966.1,91.1Zm7.1-15.3a3.18,3.18,0,0,0-2.264.936l-7.1,7.1a3.2,3.2,0,0,0,4.527,4.527l7.1-7.1A3.2,3.2,0,0,0,973.2,75.8Z"/>
          </g>
          <path id="線_480" data-name="線 480" d="M0,11.7a.9.9,0,0,1-.636-.264.9.9,0,0,1,0-1.273l10.8-10.8a.9.9,0,0,1,1.273,0,.9.9,0,0,1,0,1.273l-10.8,10.8A.9.9,0,0,1,0,11.7Z" transform="translate(1010.7 61.9)"/>
          <path id="線_481" data-name="線 481" d="M18.7,19.6a.9.9,0,0,1-.636-.264L-.636.636a.9.9,0,0,1,0-1.273.9.9,0,0,1,1.273,0l18.7,18.7A.9.9,0,0,1,18.7,19.6Z" transform="translate(1001.8 44.6)"/>
          <path id="パス_1509" data-name="パス 1509" d="M972.2,59.3l9.2-9.2a6.6,6.6,0,0,1,4.6-1.9h9.3" fill="rgba(0,0,0,0)"/>
          <path id="パス_1509_-_アウトライン" data-name="パス 1509 - アウトライン" d="M972.2,62.3a3,3,0,0,1-2.121-5.121l9.2-9.2A9.569,9.569,0,0,1,986,45.2h9.3a3,3,0,0,1,0,6H986a3.576,3.576,0,0,0-2.479,1.021l-9.2,9.2A2.991,2.991,0,0,1,972.2,62.3Z" fill="#fff"/>
          <path id="線_482" data-name="線 482" d="M15.4,18.4a2.991,2.991,0,0,1-2.121-.879l-15.4-15.4a3,3,0,0,1,0-4.243,3,3,0,0,1,4.243,0l15.4,15.4A3,3,0,0,1,15.4,18.4Z" transform="translate(997.5 59.5)" fill="#fff"/>
          <path id="パス_1510" data-name="パス 1510" d="M1003.7,77.3l3.3,3.3a4.2,4.2,0,0,0,5.8.2,4.136,4.136,0,0,0,.1-5.9L997.5,59.5a6.42,6.42,0,0,0-4.6-1.9h-7.5L982,61a8.125,8.125,0,0,1-9.3,1.6,2.044,2.044,0,0,1-.6-3.3l9.2-9.2a6.6,6.6,0,0,1,4.6-1.9h9.3a6.966,6.966,0,0,0,4.9-2l4.5-4.4" fill="rgba(0,0,0,0)"/>
          <path id="パス_1510_-_アウトライン" data-name="パス 1510 - アウトライン" d="M1010.014,82.765q-.092,0-.184,0a5.159,5.159,0,0,1-3.466-1.526l-3.3-3.3a.9.9,0,0,1,1.273-1.273l3.3,3.3a3.3,3.3,0,0,0,4.557.171,3.236,3.236,0,0,0,.07-4.6l-15.4-15.4A5.493,5.493,0,0,0,992.9,58.5h-7.127l-3.136,3.136a9.091,9.091,0,0,1-4.95,2.551,8.856,8.856,0,0,1-5.377-.777,2.944,2.944,0,0,1-.846-4.747l9.2-9.2A7.454,7.454,0,0,1,985.9,47.3h9.3a6.058,6.058,0,0,0,4.264-1.736l.007-.007,4.5-4.4a.9.9,0,0,1,1.258,1.287l-4.5,4.4A7.87,7.87,0,0,1,995.2,49.1h-9.3a5.719,5.719,0,0,0-3.964,1.636l-9.2,9.2a1.121,1.121,0,0,0-.313,1,1.14,1.14,0,0,0,.654.844l.025.012a7.254,7.254,0,0,0,8.261-1.431l3.4-3.4a.9.9,0,0,1,.636-.264h7.5a7.354,7.354,0,0,1,5.236,2.164l15.4,15.4a5.025,5.025,0,0,1,1.451,3.615,4.972,4.972,0,0,1-1.57,3.577l-.021.019A5.1,5.1,0,0,1,1010.014,82.765Z"/>
          <path id="パス_1511" data-name="パス 1511" d="M1031.7,63l-5.8,5.8L1000,42.9l5.8-5.8" fill="#fff"/>
          <path id="パス_1511_-_アウトライン" data-name="パス 1511 - アウトライン" d="M1025.9,69.7a.9.9,0,0,1-.636-.264l-25.9-25.9a.9.9,0,0,1,0-1.273l5.8-5.8a.9.9,0,1,1,1.273,1.273l-5.164,5.164L1025.9,67.527l5.164-5.164a.9.9,0,1,1,1.273,1.273l-5.8,5.8A.9.9,0,0,1,1025.9,69.7Z"/>
        </g>
      </g>
    </g>
  </g>
</svg>
