<svg xmlns="http://www.w3.org/2000/svg" width="98" height="98"><defs><clipPath id="a"><path data-name="長方形 23002" transform="translate(179 4551)" fill="#fff" stroke="#707070" opacity=".488" d="M0 0h98v98H0z"/></clipPath><clipPath id="b"><path data-name="長方形 22880" transform="translate(440 4394)" fill="#fff" stroke="#707070" d="M0 0h88v88H0z"/></clipPath></defs><g data-name="マスクグループ 62" transform="translate(-179 -4551)" clip-path="url(#a)"><g data-name="マスクグループ 7" transform="translate(-261 161.609)" clip-path="url(#b)"><g data-name="グループ 5334"><g data-name="グループ 5333"><g data-name="グループ 5331"><g data-name="グループ 5330"><g data-name="グループ 5329"><path data-name="パス 3267" d="M515 4468.7h-2v-42.9h-12.4v-2H514a1 1 0 011 1z"/><g data-name="グループ 5326"><path data-name="線 926" d="M506.4 4434.6h-3a1 1 0 01-1-1 1 1 0 011-1h3a1 1 0 011 1 1 1 0 01-1 1z"/><path data-name="線 927" d="M506.4 4443.4h-3a1 1 0 01-1-1 1 1 0 011-1h3a1 1 0 011 1 1 1 0 01-1 1z"/><path data-name="線 928" d="M506.4 4452.2h-3a1 1 0 01-1-1 1 1 0 011-1h3a1 1 0 011 1 1 1 0 01-1 1z"/><path data-name="線 929" d="M506.4 4460.9h-3a1 1 0 01-1-1 1 1 0 011-1h3a1 1 0 011 1 1 1 0 01-1 1z"/></g><g data-name="グループ 5327"><path data-name="線 930" d="M503.4 4434.6h-2.8v-2h2.8z"/><path data-name="線 931" d="M503.4 4443.4h-2.8v-2h2.8z"/><path data-name="線 932" d="M503.4 4452.2h-2.8v-2h2.8z"/><path data-name="線 933" d="M503.4 4460.9h-2.8v-2h2.8z"/></g><path data-name="線 934" d="M496.6 4471.7a3 3 0 01-3-3v-52.6a3 3 0 013-3 3 3 0 013 3v52.6a3 3 0 01-3 3z" fill="#fff"/><g data-name="グループ 5328"><path data-name="線 935" d="M487.2 4425.8h-22.3a1 1 0 01-1-1 1 1 0 011-1h22.3a1 1 0 011 1 1 1 0 01-1 1z"/><path data-name="線 936" d="M487.2 4434.6h-22.3a1 1 0 01-1-1 1 1 0 011-1h22.3a1 1 0 011 1 1 1 0 01-1 1z"/><path data-name="線 937" d="M487.2 4443.4h-22.3a1 1 0 01-1-1 1 1 0 011-1h22.3a1 1 0 011 1 1 1 0 01-1 1z"/><path data-name="線 938" d="M487.2 4452.2h-22.3a1 1 0 01-1-1 1 1 0 011-1h22.3a1 1 0 011 1 1 1 0 01-1 1z"/></g><path data-name="パス 3268" d="M471.2 4468.7h-2v-8.8a1 1 0 011-1h11.7v2h-10.7z"/></g><path data-name="線 939" d="M521 4474h-72.6a1 1 0 01-1-1 1 1 0 011-1H521a1 1 0 011 1 1 1 0 01-1 1z"/></g></g><g data-name="グループ 5332"><path data-name="パス 3269" d="M497.6 4468.7h-2v-51.6h-8.4a1 1 0 01-1-1v-6.7h-20.3v6.7a1 1 0 01-1 1h-8.4v51.6h-2v-52.6a1 1 0 011-1h8.4v-6.7a1 1 0 011-1h22.3a1 1 0 011 1v6.7h8.4a1 1 0 011 1z"/></g></g></g></g></g></svg>