<svg xmlns="http://www.w3.org/2000/svg" width="98" height="98"><defs><clipPath id="a"><path data-name="長方形 23001" transform="translate(744 4551)" fill="#fff" stroke="#707070" opacity=".488" d="M0 0h98v98H0z"/></clipPath></defs><g data-name="マスクグループ 63" transform="translate(-744 -4551)" clip-path="url(#a)"><g data-name="グループ 5325"><g data-name="グループ 4209"><g data-name="グループ 4208"><path data-name="線 478" d="M767 4609.209a.9.9 0 01-.636-.264l-10.8-10.8a.9.9 0 010-1.273.9.9 0 011.273 0l10.8 10.8a.9.9 0 01-.637 1.537z"/><path data-name="線 479" d="M758.5 4598.509a.9.9 0 01-.635-.262.9.9 0 010-1.273l17.3-17.4a.9.9 0 011.273 0 .9.9 0 010 1.273l-17.3 17.4a.9.9 0 01-.638.262z"/><path data-name="パス 1498" d="M793.9 4583.809h-11.5a6.966 6.966 0 01-4.9-2l-5.7-5.6" fill="rgba(0,0,0,0)"/><path data-name="パス 1498 - アウトライン" d="M793.9 4584.709h-11.5a7.87 7.87 0 01-5.534-2.261l-5.7-5.6a.9.9 0 111.261-1.284l5.7 5.6.006.006a6.058 6.058 0 004.267 1.739h11.5a.9.9 0 110 1.8z"/><path data-name="パス 1499" d="M746 4598.609l5.8 5.8 25.9-25.9-5.8-5.8" fill="#fff"/><path data-name="パス 1499 - アウトライン" d="M751.8 4605.309a.9.9 0 01-.636-.264l-5.8-5.8a.9.9 0 111.273-1.273l5.163 5.164 24.627-24.627-5.164-5.164a.9.9 0 111.273-1.273l5.8 5.8a.9.9 0 010 1.273l-25.9 25.9a.9.9 0 01-.636.264z"/><g data-name="グループ 4206"><path data-name="パス 1500" d="M768.1 4607.209l26.6 26.6a4.101 4.101 0 005.8-5.8l-2.3-2.3" fill="rgba(0,0,0,0)"/><path data-name="パス 1500 - アウトライン" d="M797.6 4635.909a4.968 4.968 0 01-3.536-1.464l-26.6-26.6a.9.9 0 111.273-1.273l26.6 26.6a3.201 3.201 0 104.527-4.527l-2.3-2.3a.9.9 0 011.273-1.273l2.3 2.3a5 5 0 01-3.537 8.537z"/><path data-name="パス 1501" d="M794.6 4622.109l7.1 7.1a4.101 4.101 0 005.8-5.8l-4.7-4.7" fill="rgba(0,0,0,0)"/><path data-name="パス 1501 - アウトライン" d="M804.6 4631.309a4.968 4.968 0 01-3.536-1.464l-7.1-7.1a.9.9 0 011.273-1.273l7.1 7.1a3.201 3.201 0 004.527-4.527l-4.7-4.7a.9.9 0 011.273-1.273l4.7 4.7a5 5 0 01-3.537 8.537z"/><path data-name="パス 1502" d="M800.4 4616.409l8.2 8.2a4.101 4.101 0 005.8-5.8l-8.2-8.2" fill="rgba(0,0,0,0)"/><path data-name="パス 1502 - アウトライン" d="M811.5 4626.709a4.968 4.968 0 01-3.536-1.464l-8.2-8.2a.9.9 0 011.273-1.273l8.2 8.2a3.201 3.201 0 104.527-4.527l-8.2-8.2a.9.9 0 011.273-1.273l8.2 8.2a5 5 0 01-3.537 8.537z"/></g><g data-name="グループ 4207"><path data-name="パス 1503" d="M787.8 4633.809a4.101 4.101 0 01-5.8-5.8l2.3-2.3a4.101 4.101 0 015.8 5.8z" fill="#fff"/><path data-name="パス 1503 - アウトライン" d="M784.9 4638.009a7.1 7.1 0 01-5.021-12.121l2.3-2.3a7.101 7.101 0 0110.043 10.043l-2.3 2.3a7.054 7.054 0 01-5.022 2.078zm3.079-10.179h-1.557l-2.3 2.3a1.1 1.1 0 000 1.557l.779.321a1.1 1.1 0 00.779-.321l2.3-2.3a1.1 1.1 0 00-.001-1.557z" fill="#fff"/><path data-name="パス 1504" d="M770.6 4616.309a4.101 4.101 0 01-5.8-5.8l4.7-4.7a4.101 4.101 0 015.8 5.8z" fill="#fff"/><path data-name="パス 1504 - アウトライン" d="M767.7 4620.509a7.1 7.1 0 01-5.021-12.121l4.7-4.7a7.101 7.101 0 0110.043 10.043l-4.7 4.7a7.054 7.054 0 01-5.022 2.078zm5.479-12.579h-1.557l-4.7 4.7a1.1 1.1 0 000 1.557l.779.321a1.1 1.1 0 00.779-.321l4.7-4.7a1.1 1.1 0 00-.001-1.557z" fill="#fff"/><path data-name="パス 1505" d="M787.8 4633.809a4.101 4.101 0 01-5.8-5.8l2.3-2.3a4.101 4.101 0 015.8 5.8z" fill="#fff"/><path data-name="パス 1505 - アウトライン" d="M784.9 4635.909a5 5 0 01-3.536-8.536l2.3-2.3a5.001 5.001 0 017.073 7.073l-2.3 2.3a4.968 4.968 0 01-3.537 1.463zm2.3-10.5a3.18 3.18 0 00-2.264.936l-2.3 2.3a3.201 3.201 0 004.527 4.527l2.3-2.3a3.2 3.2 0 00-2.263-5.463z"/><path data-name="パス 1506" d="M770.6 4616.309a4.101 4.101 0 01-5.8-5.8l4.7-4.7a4.101 4.101 0 015.8 5.8z" fill="#fff"/><path data-name="パス 1506 - アウトライン" d="M767.7 4618.409a5 5 0 01-3.536-8.536l4.7-4.7a5.001 5.001 0 017.073 7.073l-4.7 4.7a4.968 4.968 0 01-3.537 1.463zm4.7-12.9a3.18 3.18 0 00-2.264.936l-4.7 4.7a3.201 3.201 0 004.527 4.527l4.7-4.7a3.2 3.2 0 00-2.263-5.463z"/><path data-name="パス 1507" d="M780.8 4629.209a4.101 4.101 0 01-5.8-5.8l4.7-4.7a4.101 4.101 0 015.8 5.8z" fill="#fff"/><path data-name="パス 1507 - アウトライン" d="M777.9 4631.309a5 5 0 01-3.536-8.536l4.7-4.7a5.001 5.001 0 017.073 7.073l-4.7 4.7a4.968 4.968 0 01-3.537 1.463zm4.7-12.9a3.18 3.18 0 00-2.264.936l-4.7 4.7a3.201 3.201 0 004.527 4.527l4.7-4.7a3.2 3.2 0 00-2.263-5.463z"/><path data-name="パス 1508" d="M773.8 4624.609a4.101 4.101 0 01-5.8-5.8l7.1-7.1a4.101 4.101 0 015.8 5.8z" fill="#fff"/><path data-name="パス 1508 - アウトライン" d="M770.9 4626.709a5 5 0 01-3.536-8.536l7.1-7.1a5.001 5.001 0 017.073 7.073l-7.1 7.1a4.968 4.968 0 01-3.537 1.463zm7.1-15.3a3.18 3.18 0 00-2.264.936l-7.1 7.1a3.201 3.201 0 004.527 4.527l7.1-7.1a3.2 3.2 0 00-2.263-5.463z"/></g><path data-name="線 480" d="M815.5 4609.209a.9.9 0 01-.636-.264.9.9 0 010-1.273l10.8-10.8a.9.9 0 011.273 0 .9.9 0 010 1.273l-10.8 10.8a.9.9 0 01-.637.264z"/><path data-name="線 481" d="M825.3 4599.809a.9.9 0 01-.636-.264l-18.7-18.7a.9.9 0 010-1.273.9.9 0 011.273 0l18.7 18.7a.9.9 0 01-.637 1.537z"/><path data-name="パス 1509" d="M777 4594.909l9.2-9.2a6.6 6.6 0 014.6-1.9h9.3" fill="rgba(0,0,0,0)"/><path data-name="パス 1509 - アウトライン" d="M777 4597.909a3 3 0 01-2.121-5.121l9.2-9.2a9.569 9.569 0 016.721-2.779h9.3a3 3 0 010 6h-9.3a3.576 3.576 0 00-2.479 1.021l-9.2 9.2a2.991 2.991 0 01-2.121.879z" fill="#fff"/><path data-name="線 482" d="M817.7 4613.509a2.991 2.991 0 01-2.121-.879l-15.4-15.4a3 3 0 010-4.243 3 3 0 014.243 0l15.4 15.4a3 3 0 01-2.122 5.122z" fill="#fff"/><path data-name="パス 1510" d="M808.5 4612.909l3.3 3.3a4.2 4.2 0 005.8.2 4.136 4.136 0 00.1-5.9l-15.4-15.4a6.42 6.42 0 00-4.6-1.9h-7.5l-3.4 3.4a8.125 8.125 0 01-9.3 1.6 2.044 2.044 0 01-.6-3.3l9.2-9.2a6.6 6.6 0 014.6-1.9h9.3a6.966 6.966 0 004.9-2l4.5-4.4" fill="rgba(0,0,0,0)"/><path data-name="パス 1510 - アウトライン" d="M814.814 4618.374h-.184a5.159 5.159 0 01-3.466-1.526l-3.3-3.3a.9.9 0 011.273-1.273l3.3 3.3a3.3 3.3 0 004.557.171 3.236 3.236 0 00.07-4.6l-15.4-15.4a5.493 5.493 0 00-3.964-1.637h-7.127l-3.136 3.136a9.091 9.091 0 01-4.95 2.551 8.856 8.856 0 01-5.377-.777 2.944 2.944 0 01-.846-4.747l9.2-9.2a7.454 7.454 0 015.236-2.163h9.3a6.058 6.058 0 004.264-1.736l.007-.007 4.5-4.4a.9.9 0 011.258 1.287l-4.5 4.4a7.87 7.87 0 01-5.529 2.256h-9.3a5.719 5.719 0 00-3.964 1.636l-9.2 9.2a1.121 1.121 0 00-.313 1 1.14 1.14 0 00.654.844l.025.012a7.254 7.254 0 008.261-1.431l3.4-3.4a.9.9 0 01.636-.264h7.5a7.354 7.354 0 015.236 2.164l15.4 15.4a5.025 5.025 0 011.451 3.615 4.972 4.972 0 01-1.57 3.577l-.021.019a5.1 5.1 0 01-3.381 1.293z"/><path data-name="パス 1511" d="M836.5 4598.609l-5.8 5.8-25.9-25.9 5.8-5.8" fill="#fff"/><path data-name="パス 1511 - アウトライン" d="M830.7 4605.309a.9.9 0 01-.636-.264l-25.9-25.9a.9.9 0 010-1.273l5.8-5.8a.9.9 0 111.273 1.273l-5.164 5.164 24.627 24.627 5.164-5.164a.9.9 0 111.273 1.273l-5.8 5.8a.9.9 0 01-.637.264z"/></g></g></g></g></svg>