<svg xmlns="http://www.w3.org/2000/svg" width="160.651" height="20.627" viewBox="0 0 160.651 20.627">
  <g id="森下仁丹株式会社ロゴ_切り抜き" transform="translate(-23 -21.8)">
    <g id="グループ_3899" data-name="グループ 3899" transform="translate(23 21.8)">
      <rect id="長方形_5165" data-name="長方形 5165" width="160.594" height="19.663" transform="translate(0 0.283)" fill="none"/>
      <g id="グループ_3898" data-name="グループ 3898" transform="translate(0)">
        <path id="パス_344" data-name="パス 344" d="M31.593,27.513v4.08H33.86v-4.08a18.086,18.086,0,0,0,7.593,3.967V29.043c-2.323-.4-4.7-2.1-6.233-3.287h6.233V24.17a.317.317,0,0,0-.283-.34H33.86V22.3H31.593v1.53H24v1.587a.366.366,0,0,0,.34.34h5.893c-1.53,1.19-3.91,2.89-6.233,3.287V31.48A18.086,18.086,0,0,0,31.593,27.513Z" transform="translate(-23.433 -22.017)" fill="#fff"/>
        <path id="パス_345" data-name="パス 345" d="M38.47,40.457H41.3V38.87a.366.366,0,0,0-.34-.34h-2.89V37H35.807v1.53h-3.23v1.587h0a.366.366,0,0,0,.34.34H35.41a12.567,12.567,0,0,1-3.117,4.193,12.567,12.567,0,0,1-3.117-4.193H32.01V38.87a.366.366,0,0,0-.34-.34H28.78V37H26.513v1.53h-3.23v1.587h0a.366.366,0,0,0,.34.34h2.493A12.567,12.567,0,0,1,23,44.65v2.72a13.374,13.374,0,0,0,3.513-3.74v4.7H28.78v-4.7a13.374,13.374,0,0,0,3.513,3.74,13.374,13.374,0,0,0,3.513-3.74v4.7h2.267v-4.7a13.374,13.374,0,0,0,3.513,3.74V44.65A12.033,12.033,0,0,1,38.47,40.457Z" transform="translate(-23 -28.387)" fill="#fff"/>
        <path id="パス_346" data-name="パス 346" d="M185.717,32.373h4.363V30.617a.317.317,0,0,0-.283-.34h-4.7v-3.23h4.7V25.29a.317.317,0,0,0-.283-.34h-4.42V22.4h-2.38v2.55H180.9a15.261,15.261,0,0,0,.17-2.267h-1.983c0,1.473-.227,3.8-.907,4.647v2.72a5.009,5.009,0,0,0,2.267-3h2.267v3.23h-4.59V32.09a.366.366,0,0,0,.34.34h3.57A27.484,27.484,0,0,1,177.5,38.1v3a23.338,23.338,0,0,0,5.157-5.78v6.687h2.38V35.263a23.338,23.338,0,0,0,5.157,5.78v-3A25.973,25.973,0,0,1,185.717,32.373Z" transform="translate(-89.95 -22.06)" fill="#fff"/>
        <path id="パス_347" data-name="パス 347" d="M172.4,34.357V31.183a11.54,11.54,0,0,1-2.04-2.04v-2.1h2.323V25.29a.317.317,0,0,0-.283-.34h-2.04V22.4h-2.38v2.55h-2.323v1.813a.366.366,0,0,0,.34.34h1.87a20.672,20.672,0,0,1-2.663,6.46v3.57a18.353,18.353,0,0,0,2.777-4.647V42.12h2.38V32.147A13.068,13.068,0,0,0,172.4,34.357Z" transform="translate(-84.62 -22.06)" fill="#fff"/>
        <path id="パス_348" data-name="パス 348" d="M94.017,22.3c-.227,3.967-1.36,6.063-3.117,7.99v3.4a9.619,9.619,0,0,0,2.153-1.813V41.963h2.72V30.29h-1.53A16.331,16.331,0,0,0,96.68,22.3Z" transform="translate(-52.423 -22.017)" fill="#fff"/>
        <path id="パス_349" data-name="パス 349" d="M145.507,31.21A2.675,2.675,0,0,0,143.75,29.4a6.891,6.891,0,0,0-2.55-.4v.907c.227.057.567.227.623.51.113.567-.227,1.02-.057,1.757a1.964,1.964,0,0,0,2.323,1.36A1.874,1.874,0,0,0,145.507,31.21Z" transform="translate(-74.22 -24.92)" fill="#fff"/>
        <path id="パス_350" data-name="パス 350" d="M147.177,32.037H145.25V23.253c0-.227-.17-.4-.453-.453H129.553v9.293H127.4v1.813h0a.488.488,0,0,0,.453.453h1.7a8.537,8.537,0,0,1-1.587,5.1v3.4c2.947-1.417,4.307-5.27,4.307-8.5H142.53v4.59c0,.623-.227,1.02-.85,1.02h-1.87v2.267h3.343a2.038,2.038,0,0,0,2.153-2.1V34.3h2.38V32.49h0A.692.692,0,0,0,147.177,32.037Zm-14.9,0V25.01H142.53v7.027Z" transform="translate(-68.24 -22.233)" fill="#fff"/>
        <path id="パス_351" data-name="パス 351" d="M74.623,24.4H57v1.813h0a.447.447,0,0,0,.453.453h6.29V42.873h2.72V33.3a52.421,52.421,0,0,1,6.517,3.91V34.09a49.1,49.1,0,0,0-6.517-3.457V26.667h8.5V24.8A.6.6,0,0,0,74.623,24.4Z" transform="translate(-37.733 -22.927)" fill="#fff"/>
        <path id="パス_352" data-name="パス 352" d="M103.8,27.267H114.96V25.453a.488.488,0,0,0-.453-.453H103.4v1.927A.6.6,0,0,0,103.8,27.267Z" transform="translate(-57.84 -23.187)" fill="#fff"/>
        <path id="パス_353" data-name="パス 353" d="M114.693,50.7H102v1.813h0a.447.447,0,0,0,.453.453h12.693V51.04A.494.494,0,0,0,114.693,50.7Z" transform="translate(-57.233 -34.323)" fill="#fff"/>
        <path id="パス_354" data-name="パス 354" d="M218.267,24.68h-2.04V22.3H213.62v2.38H202.4v1.813h0a.447.447,0,0,0,.453.453h10.88c.51,6.12,2.947,11.9,6.8,15.64V38.393a20.929,20.929,0,0,1-4.193-11.447h3.853a.366.366,0,0,0,.34-.34V22.3h-2.267Z" transform="translate(-100.74 -22.017)" fill="#fff"/>
        <path id="パス_355" data-name="パス 355" d="M214.773,44.387h0c-1.7.227-3.343.4-4.987.51v-6.63h4.023V36.34a.317.317,0,0,0-.283-.34H203.383v1.927a.366.366,0,0,0,.34.34h3.683v6.8c-1.36.057-2.777.113-4.307.113v1.927a.366.366,0,0,0,.34.34,84.836,84.836,0,0,0,11.73-.793V44.727A.486.486,0,0,0,214.773,44.387Z" transform="translate(-101.043 -27.953)" fill="#fff"/>
        <path id="パス_356" data-name="パス 356" d="M281.24,36.3v-2.72a19.179,19.179,0,0,1-2.89-2.55,11.777,11.777,0,0,0,2.38-6.177h-2.89V22.3h-2.38v2.55h-2.777v1.813a.366.366,0,0,0,.34.34h5.157a15.141,15.141,0,0,1-5.78,6.687V36.3a18.76,18.76,0,0,0,3.117-2.1v7.763h2.38V33.52A15.854,15.854,0,0,0,281.24,36.3Z" transform="translate(-131.073 -22.017)" fill="#fff"/>
        <path id="パス_357" data-name="パス 357" d="M297.393,38.777h-4.307V29.143h4.023V27.387a.317.317,0,0,0-.283-.34h-3.74V22.4h-2.38v4.647h-3.74V28.86a.366.366,0,0,0,.34.34h3.4v9.633H286.4V40.76a.366.366,0,0,0,.34.34h11.05V39.173A.481.481,0,0,0,297.393,38.777Z" transform="translate(-137.139 -22.06)" fill="#fff"/>
        <path id="パス_358" data-name="パス 358" d="M243.7,32.3v1.927a.366.366,0,0,0,.34.34h10.087V32.64a.317.317,0,0,0-.283-.34Z" transform="translate(-118.636 -26.35)" fill="#fff"/>
        <path id="パス_359" data-name="パス 359" d="M255.073,29V26.333A21.957,21.957,0,0,1,247.2,21.8h-2.72a22.821,22.821,0,0,1-7.877,4.533V29a25.441,25.441,0,0,0,9.237-5.27A25.44,25.44,0,0,0,255.073,29Z" transform="translate(-115.559 -21.8)" fill="#fff"/>
        <path id="パス_360" data-name="パス 360" d="M254.9,40H235.8v1.927a.366.366,0,0,0,.34.34h4.7a26.356,26.356,0,0,1-3,5.043v2.323a58.38,58.38,0,0,0,12.92-1.643c.283.567.567,1.133.793,1.643h2.777c-.68-1.53-2.21-4.477-3.173-6.4h-2.833c.34.623.85,1.587,1.36,2.663a66.549,66.549,0,0,1-8.953,1.3,38.373,38.373,0,0,0,2.833-4.93H255.18V40.34A.359.359,0,0,0,254.9,40Z" transform="translate(-115.213 -29.687)" fill="#fff"/>
      </g>
    </g>
  </g>
</svg>
