<svg xmlns="http://www.w3.org/2000/svg" width="65" height="65" viewBox="0 0 65 65">
  <g id="グループ_8720" data-name="グループ 8720" transform="translate(-150 -2458)">
    <path id="パス_6697" data-name="パス 6697" d="M32.5,0A32.5,32.5,0,1,1,0,32.5,32.5,32.5,0,0,1,32.5,0Z" transform="translate(150 2458)" fill="#fff"/>
    <path id="パス_6697_-_アウトライン" data-name="パス 6697 - アウトライン" d="M32.5,1A31.509,31.509,0,0,0,20.239,61.525,31.508,31.508,0,0,0,44.761,3.475,31.3,31.3,0,0,0,32.5,1m0-1A32.5,32.5,0,1,1,0,32.5,32.5,32.5,0,0,1,32.5,0Z" transform="translate(150 2458)" fill="#dae5f3"/>
    <g id="薬のカプセルのアイコン素材" transform="translate(168.726 2476.723)">
      <path id="パス_5381" data-name="パス 5381" d="M41.069,2.382a8.145,8.145,0,0,0-11.5,0L25.132,6.817l11.5,11.5,4.435-4.435A8.131,8.131,0,0,0,41.069,2.382Z" transform="translate(-15.901)" fill="#0d5bab"/>
      <path id="パス_5382" data-name="パス 5382" d="M2.38,29.568a8.131,8.131,0,1,0,11.5,11.5l4.432-4.432-11.5-11.5Z" transform="translate(0 -15.901)" fill="#0d5bab"/>
    </g>
  </g>
</svg>
