<svg xmlns="http://www.w3.org/2000/svg" width="65" height="65" viewBox="0 0 65 65">
  <g id="グループ_8721" data-name="グループ 8721" transform="translate(-527.287 -2458)">
    <circle id="楕円形_3" data-name="楕円形 3" cx="32.5" cy="32.5" r="32.5" transform="translate(527.287 2458)" fill="#fff"/>
    <path id="楕円形_3_-_アウトライン" data-name="楕円形 3 - アウトライン" d="M32.5,1A31.509,31.509,0,0,0,20.239,61.525,31.508,31.508,0,0,0,44.761,3.475,31.3,31.3,0,0,0,32.5,1m0-1A32.5,32.5,0,1,1,0,32.5,32.5,32.5,0,0,1,32.5,0Z" transform="translate(527.287 2458)" fill="#dae5f3"/>
    <g id="飴アイコン4" transform="translate(525.442 2456.155)">
      <g id="グループ_7220" data-name="グループ 7220" transform="translate(16.6 16.599)">
        <path id="パス_5396" data-name="パス 5396" d="M29.715,13.78a1.221,1.221,0,0,0-1.728,0L13.932,27.834a1.222,1.222,0,0,0,0,1.728L20.15,35.78a1.222,1.222,0,0,0,1.728,0L35.933,21.725a1.221,1.221,0,0,0,0-1.728Z" transform="translate(-7.15 -7.07)" fill="#0d5bab"/>
        <path id="パス_5397" data-name="パス 5397" d="M.465,53.806a.667.667,0,0,0,0,1.273l3.054.948-.844,3.181a.667.667,0,0,0,.816.816l3.181-.844.947,3.054a.667.667,0,0,0,1.273,0l2.149-6.746L7.211,51.657Z" transform="translate(0 -27.212)" fill="#0d5bab"/>
        <path id="パス_5398" data-name="パス 5398" d="M62.234,7.624,59.18,6.676,60.025,3.5a.667.667,0,0,0-.816-.816l-3.181.844L55.08.47a.667.667,0,0,0-1.273,0L51.658,7.211l3.835,3.835L62.239,8.9a.667.667,0,0,0,0-1.273Z" transform="translate(-27.212 -0.001)" fill="#0d5bab"/>
      </g>
    </g>
  </g>
</svg>
