<svg xmlns="http://www.w3.org/2000/svg" width="65" height="65" viewBox="0 0 65 65">
  <g id="グループ_8722" data-name="グループ 8722" transform="translate(-905.147 -2458)">
    <circle id="楕円形_3" data-name="楕円形 3" cx="32.5" cy="32.5" r="32.5" transform="translate(905.147 2458)" fill="#fff"/>
    <path id="楕円形_3_-_アウトライン" data-name="楕円形 3 - アウトライン" d="M32.5,1A31.509,31.509,0,0,0,20.239,61.525,31.508,31.508,0,0,0,44.761,3.475,31.3,31.3,0,0,0,32.5,1m0-1A32.5,32.5,0,1,1,0,32.5,32.5,32.5,0,0,1,32.5,0Z" transform="translate(905.147 2458)" fill="#dae5f3"/>
    <g id="缶ビールの無料アイコン1" transform="translate(911.084 2469.536)">
      <rect id="長方形_22970" data-name="長方形 22970" width="20.457" height="1.971" transform="translate(16.335)" fill="#0d5bab"/>
      <path id="パス_5376" data-name="パス 5376" d="M46.221,61.557h-.472a.027.027,0,0,0-.03.03v.663a.026.026,0,0,0,.03.03h.472a.364.364,0,1,0,0-.724Z" transform="translate(-14.78 -28.786)" fill="#0d5bab"/>
      <path id="パス_5377" data-name="パス 5377" d="M28.137,63.87h-.4a.027.027,0,0,0-.03.03v.708a.027.027,0,0,0,.03.03h.4c.276,0,.417-.136.417-.387C28.554,64.016,28.413,63.87,28.137,63.87Z" transform="translate(-6.357 -29.868)" fill="#0d5bab"/>
      <path id="パス_5378" data-name="パス 5378" d="M28.092,62.109c.266,0,.407-.115.407-.351s-.136-.351-.407-.351h-.357a.026.026,0,0,0-.03.03v.643a.026.026,0,0,0,.03.03h.357Z" transform="translate(-6.357 -28.716)" fill="#0d5bab"/>
      <path id="パス_5379" data-name="パス 5379" d="M33.642,20.758a7.891,7.891,0,1,0,3.471,2.859A7.867,7.867,0,0,0,33.642,20.758Z" transform="translate(-4.009 -9.418)" fill="#0d5bab"/>
      <path id="パス_5380" data-name="パス 5380" d="M38.759,8.769C38.43,8.195,36.294,5.4,36.294,5.4H16.832S14.7,8.195,14.368,8.769s-.247.822-.247,1.643V37.688c0,1.068.3,2.429,1.068,2.793,1.552.74.977,1.972,2.629,1.972h17.49c1.652,0,1.077-1.232,2.629-1.972C38.7,40.117,39,38.756,39,37.688S39.087,9.344,38.759,8.769ZM34.942,26.784a10.12,10.12,0,1,1,1.726-5.651A10.139,10.139,0,0,1,34.942,26.784Z" transform="translate(0 -2.525)" fill="#0d5bab"/>
    </g>
  </g>
</svg>
