<svg xmlns="http://www.w3.org/2000/svg" width="160.651" height="20.627"><g data-name="グループ 3899"><path data-name="長方形 5165" fill="none" d="M0 .283h160.594v19.663H0z"/><g data-name="グループ 3898" fill="#fff"><path data-name="パス 344" d="M8.16 5.496v4.08h2.267v-4.08a18.086 18.086 0 007.593 3.967V7.026c-2.323-.4-4.7-2.1-6.233-3.287h6.233V2.153a.317.317 0 00-.283-.34h-7.31V.283H8.16v1.53H.567V3.4a.366.366 0 00.34.34H6.8C5.27 4.93 2.89 6.63.567 7.027v2.436A18.086 18.086 0 008.16 5.496z"/><path data-name="パス 345" d="M15.47 12.07h2.83v-1.587a.366.366 0 00-.34-.34h-2.89v-1.53h-2.263v1.53h-3.23v1.587a.366.366 0 00.34.34h2.493a12.567 12.567 0 01-3.117 4.193 12.567 12.567 0 01-3.117-4.193H9.01v-1.587a.366.366 0 00-.34-.34H5.78v-1.53H3.513v1.53H.283v1.587a.366.366 0 00.34.34h2.493A12.567 12.567 0 010 16.263v2.72a13.374 13.374 0 003.513-3.74v4.7H5.78v-4.7a13.374 13.374 0 003.513 3.74 13.374 13.374 0 003.513-3.74v4.7h2.267v-4.7a13.374 13.374 0 003.513 3.74v-2.72a12.033 12.033 0 01-3.116-4.193z"/><path data-name="パス 346" d="M95.767 10.313h4.363V8.557a.317.317 0 00-.283-.34h-4.7v-3.23h4.7V3.23a.317.317 0 00-.283-.34h-4.42V.34h-2.38v2.55H90.95a15.261 15.261 0 00.17-2.267h-1.983c0 1.473-.227 3.8-.907 4.647v2.72a5.009 5.009 0 002.267-3h2.267v3.23h-4.59v1.81a.366.366 0 00.34.34h3.57a27.484 27.484 0 01-4.534 5.67v3a23.338 23.338 0 005.157-5.78v6.687h2.38v-6.744a23.338 23.338 0 005.157 5.78v-3a25.973 25.973 0 01-4.477-5.67z"/><path data-name="パス 347" d="M87.78 12.297V9.123a11.54 11.54 0 01-2.04-2.04v-2.1h2.323V3.23a.317.317 0 00-.283-.34h-2.04V.34h-2.38v2.55h-2.323v1.813a.366.366 0 00.34.34h1.87a20.672 20.672 0 01-2.663 6.46v3.57a18.353 18.353 0 002.777-4.647v9.634h2.38v-9.973a13.068 13.068 0 002.039 2.21z"/><path data-name="パス 348" d="M41.594.283c-.227 3.967-1.36 6.063-3.117 7.99v3.4A9.619 9.619 0 0040.63 9.86v10.086h2.72V8.273h-1.53a16.331 16.331 0 002.437-7.99z"/><path data-name="パス 349" d="M71.287 6.29a2.675 2.675 0 00-1.757-1.81 6.891 6.891 0 00-2.55-.4v.907c.227.057.567.227.623.51.113.567-.227 1.02-.057 1.757a1.964 1.964 0 002.323 1.36 1.874 1.874 0 001.418-2.324z"/><path data-name="パス 350" d="M78.937 9.804H77.01V1.02c0-.227-.17-.4-.453-.453H61.313V9.86H59.16v1.813a.488.488 0 00.453.453h1.7a8.537 8.537 0 01-1.587 5.1v3.4c2.947-1.417 4.307-5.27 4.307-8.5H74.29v4.59c0 .623-.227 1.02-.85 1.02h-1.87v2.267h3.343a2.038 2.038 0 002.153-2.1v-5.836h2.38v-1.81a.692.692 0 00-.509-.453zm-14.9 0V2.777H74.29v7.027z"/><path data-name="パス 351" d="M36.89 1.473H19.267v1.813a.447.447 0 00.453.453h6.29v16.207h2.72v-9.573a52.421 52.421 0 016.517 3.91v-3.12a49.1 49.1 0 00-6.517-3.457V3.74h8.5V1.873a.6.6 0 00-.34-.4z"/><path data-name="パス 352" d="M45.96 4.08h11.16V2.266a.488.488 0 00-.453-.453H45.56V3.74a.6.6 0 00.4.34z"/><path data-name="パス 353" d="M57.46 16.377H44.767v1.813a.447.447 0 00.453.453h12.693v-1.926a.494.494 0 00-.453-.34z"/><path data-name="パス 354" d="M117.527 2.663h-2.04V.283h-2.607v2.38h-11.22v1.813a.447.447 0 00.453.453h10.88c.51 6.12 2.947 11.9 6.8 15.64v-4.193A20.929 20.929 0 01115.6 4.929h3.853a.366.366 0 00.34-.34V.283h-2.267z"/><path data-name="パス 355" d="M113.73 16.434c-1.7.227-3.343.4-4.987.51v-6.63h4.023V8.387a.317.317 0 00-.283-.34H102.34v1.927a.366.366 0 00.34.34h3.683v6.8c-1.36.057-2.777.113-4.307.113v1.927a.366.366 0 00.34.34 84.836 84.836 0 0011.73-.793v-1.927a.486.486 0 00-.396-.34z"/><path data-name="パス 356" d="M150.167 14.283v-2.72a19.179 19.179 0 01-2.89-2.55 11.777 11.777 0 002.38-6.177h-2.89V.283h-2.38v2.55h-2.777v1.813a.366.366 0 00.34.34h5.157a15.141 15.141 0 01-5.78 6.687v2.61a18.76 18.76 0 003.117-2.1v7.763h2.38v-8.443a15.854 15.854 0 003.343 2.78z"/><path data-name="パス 357" d="M160.254 16.717h-4.307V7.083h4.023V5.327a.317.317 0 00-.283-.34h-3.74V.34h-2.38v4.647h-3.74V6.8a.366.366 0 00.34.34h3.4v9.633h-4.306V18.7a.366.366 0 00.34.34h11.05v-1.927a.481.481 0 00-.397-.396z"/><path data-name="パス 358" d="M125.064 5.95v1.927a.366.366 0 00.34.34h10.087V6.29a.317.317 0 00-.283-.34z"/><path data-name="パス 359" d="M139.514 7.2V4.533A21.957 21.957 0 01131.641 0h-2.72a22.821 22.821 0 01-7.877 4.533V7.2a25.441 25.441 0 009.237-5.27 25.44 25.44 0 009.233 5.27z"/><path data-name="パス 360" d="M139.687 10.313h-19.1v1.927a.366.366 0 00.34.34h4.7a26.356 26.356 0 01-3 5.043v2.323a58.38 58.38 0 0012.92-1.643c.283.567.567 1.133.793 1.643h2.777c-.68-1.53-2.21-4.477-3.173-6.4h-2.833c.34.623.85 1.587 1.36 2.663a66.549 66.549 0 01-8.953 1.3 38.373 38.373 0 002.833-4.93h11.616v-1.926a.359.359 0 00-.28-.34z"/></g></g></svg>