<?xml version="1.0" encoding="utf-8"?>
<!-- Generator: Adobe Illustrator 27.2.0, SVG Export Plug-In . SVG Version: 6.00 Build 0)  -->
<svg version="1.1" xmlns="http://www.w3.org/2000/svg" xmlns:xlink="http://www.w3.org/1999/xlink" x="0px" y="0px"
	 viewBox="0 0 284.5 149.2" style="enable-background:new 0 0 284.5 149.2;" xml:space="preserve">
<style type="text/css">
	.st0{fill:#FFFFFF;}
	.st1{fill:#FFF100;}
	.st2{fill:#E60012;}
	.st3{fill:none;}
</style>
<g id="レイヤー_1">
	<g>
		<g>
			<path d="M-257.6,2031.9c0.3,0,0.5,0,0.7,0.1c0.2,0.1,0.4,0.2,0.5,0.3c0.1,0.1,0.2,0.3,0.3,0.5s0.1,0.4,0.2,0.6
				c0,0.2,0.1,0.4,0.1,0.7c0,0.2,0,0.5,0,0.7c0,0.4,0,0.7-0.1,1.1c-0.1,0.3-0.1,0.6-0.3,0.9c-0.1,0.3-0.3,0.5-0.6,0.6
				s-0.5,0.2-0.9,0.2c-0.4,0-0.7-0.1-0.9-0.2c-0.2-0.2-0.4-0.4-0.6-0.6s-0.2-0.6-0.3-0.9s-0.1-0.7-0.1-1.1c0-0.4,0-0.7,0.1-1
				c0-0.3,0.1-0.6,0.3-0.9c0.1-0.3,0.3-0.5,0.6-0.7C-258.3,2032-258,2031.9-257.6,2031.9z M-256.3,2034.8c0-0.3,0-0.6,0-0.9
				c0-0.3-0.1-0.6-0.2-0.8c-0.1-0.2-0.2-0.4-0.4-0.6c-0.2-0.1-0.4-0.2-0.7-0.2c-0.3,0-0.5,0.1-0.7,0.2c-0.2,0.1-0.3,0.3-0.4,0.6
				c-0.1,0.2-0.2,0.5-0.2,0.8c0,0.3-0.1,0.6-0.1,0.9c0,0.4,0,0.7,0.1,1c0,0.3,0.1,0.5,0.2,0.8c0.1,0.2,0.2,0.4,0.4,0.5
				s0.4,0.2,0.6,0.2c0.3,0,0.5-0.1,0.7-0.2s0.3-0.3,0.4-0.6c0.1-0.2,0.2-0.5,0.2-0.8C-256.3,2035.3-256.3,2035.1-256.3,2034.8z"/>
			<path d="M-253,2031.9c0.3,0,0.5,0,0.7,0.1c0.2,0.1,0.4,0.2,0.5,0.3s0.2,0.3,0.3,0.5c0.1,0.2,0.1,0.4,0.2,0.6
				c0,0.2,0.1,0.4,0.1,0.7c0,0.2,0,0.5,0,0.7c0,0.4,0,0.7-0.1,1.1c-0.1,0.3-0.1,0.6-0.3,0.9c-0.1,0.3-0.3,0.5-0.6,0.6
				c-0.2,0.2-0.5,0.2-0.9,0.2c-0.4,0-0.7-0.1-0.9-0.2c-0.2-0.2-0.4-0.4-0.6-0.6c-0.1-0.3-0.2-0.6-0.3-0.9s-0.1-0.7-0.1-1.1
				c0-0.4,0-0.7,0.1-1c0-0.3,0.1-0.6,0.3-0.9c0.1-0.3,0.3-0.5,0.6-0.7C-253.7,2032-253.3,2031.9-253,2031.9z M-251.6,2034.8
				c0-0.3,0-0.6,0-0.9s-0.1-0.6-0.2-0.8c-0.1-0.2-0.2-0.4-0.4-0.6s-0.4-0.2-0.7-0.2c-0.3,0-0.5,0.1-0.7,0.2s-0.3,0.3-0.4,0.6
				c-0.1,0.2-0.2,0.5-0.2,0.8s-0.1,0.6-0.1,0.9c0,0.4,0,0.7,0.1,1c0,0.3,0.1,0.5,0.2,0.8c0.1,0.2,0.2,0.4,0.4,0.5
				c0.2,0.1,0.4,0.2,0.6,0.2c0.3,0,0.5-0.1,0.7-0.2c0.2-0.1,0.3-0.3,0.4-0.6s0.2-0.5,0.2-0.8
				C-251.7,2035.3-251.6,2035.1-251.6,2034.8z"/>
			<path d="M-248.3,2031.9c0.3,0,0.5,0,0.7,0.1c0.2,0.1,0.4,0.2,0.5,0.3c0.1,0.1,0.2,0.3,0.3,0.5s0.1,0.4,0.2,0.6
				c0,0.2,0.1,0.4,0.1,0.7c0,0.2,0,0.5,0,0.7c0,0.4,0,0.7-0.1,1.1c-0.1,0.3-0.1,0.6-0.3,0.9c-0.1,0.3-0.3,0.5-0.6,0.6
				s-0.5,0.2-0.9,0.2s-0.7-0.1-0.9-0.2s-0.4-0.4-0.6-0.6s-0.2-0.6-0.3-0.9c-0.1-0.3-0.1-0.7-0.1-1.1c0-0.4,0-0.7,0.1-1
				c0-0.3,0.1-0.6,0.3-0.9c0.1-0.3,0.3-0.5,0.6-0.7C-249,2032-248.7,2031.9-248.3,2031.9z M-247,2034.8c0-0.3,0-0.6,0-0.9
				c0-0.3-0.1-0.6-0.2-0.8c-0.1-0.2-0.2-0.4-0.4-0.6c-0.2-0.1-0.4-0.2-0.7-0.2c-0.3,0-0.5,0.1-0.7,0.2s-0.3,0.3-0.4,0.6
				c-0.1,0.2-0.2,0.5-0.2,0.8c0,0.3-0.1,0.6-0.1,0.9c0,0.4,0,0.7,0.1,1c0,0.3,0.1,0.5,0.2,0.8c0.1,0.2,0.2,0.4,0.4,0.5
				c0.2,0.1,0.4,0.2,0.6,0.2c0.3,0,0.5-0.1,0.7-0.2s0.3-0.3,0.4-0.6c0.1-0.2,0.2-0.5,0.2-0.8C-247,2035.3-247,2035.1-247,2034.8z"/>
		</g>
	</g>
	<g>
		<g>
			<path class="st0" d="M95.2,54c0-1.1-0.9-1.9-1.9-1.9H80.7h-0.3h-3h0h-5.4c-3.3,0-7.6-1.6-8.6-2c-0.8-0.3-1.5-0.1-2,0.5l-2.5-8.8
				c-0.1-0.5-0.5-0.9-1.1-0.7c-0.2-0.7-0.4-1.5-0.5-2.1c0.6,0.1,1.1,0,1.5-0.2c1.4-0.6,1.7-1.5,2.3-3.7l0-0.1
				c0.2-0.8,0.6-1.5,0.9-2.2c0.2-0.4,0.4-0.9,0.6-1.4c1.6,0.2,4.3,0.4,6.6-0.2c0.3-0.1,0.7-0.2,1-0.3c0.7-0.3,1.4-0.7,1.8-1.2
				c0,0,0,0,0,0c1.1-1.2,1.5-2.9,1-4.5c-0.6-1.8-2.1-3.2-4.3-3.9c0.9-6.8-1.4-11.3-7.1-13.2c-1.2-4.2-4.9-7.3-9.6-7.9
				C47-0.5,42.5,1.7,40.1,5.9c-0.1,0-0.1,0-0.2,0c-6.6,0-10.5,3.4-11.2,9.8c-1.8-0.1-3.5,0.5-4.6,1.9c-1.2,1.4-1.5,3.3-0.9,4.9
				c0.1,0.4,0.3,0.7,0.6,1c0,0,0,0,0,0c0,0,0.1,0.1,0.1,0.1c1.7,2.2,4.7,2.8,7.9,2.7c0.8,0,1.5,0,2.3-0.1c0,1.2-0.1,2.3-0.1,3.5
				c-0.2,4.3-0.3,8.4,0.2,11.6c0.3,1.9,1,3.5,1.8,4.7c-0.6,1.6-1.3,3.2-2.2,4.5l0,0c-0.6-0.6-1.3-0.8-2.1-0.5c-1,0.4-5.3,2-8.6,2
				h-5.4h-3h-0.2H1.9C0.9,52.1,0,52.9,0,54v16.2c0,1.2,1,2.2,2.2,2.2H3v74.5v2.2h2.2H90h2.2l0,0v-2.2l0,0V72.4H93
				c1.2,0,2.2-1,2.2-2.2L95.2,54z"/>
			<g>
				<path d="M50.6,26.8c0.3,0.1,0.6,0,0.7-0.3c0.1-0.3,0-0.6-0.3-0.7c-2.2-1-5.9-0.9-8.3,0.2c-0.3,0.1-0.4,0.4-0.3,0.7
					c0.1,0.2,0.3,0.3,0.5,0.3c0.1,0,0.1,0,0.2,0C45.5,25.9,48.9,26,50.6,26.8z"/>
				<path d="M50.1,28.2c-0.9-0.1-2.8-0.3-3.1-0.4c-2.2-0.2-3.5,0.8-3.9,2.1c0.3,0.1,0.5,0,0.8-0.2c0.5-0.4,0.8-0.5,1.3-0.5
					c0.2,0.4,0.5,1,1.2,1.1C48.5,30.5,49.6,29.5,50.1,28.2z"/>
				<path d="M57.5,35.2c2.3-1.4,2.9-4.2,3-4.9c0-0.7-0.1-1.3-0.7-1.6c-0.8-0.3-1.7,0.9-1.9,2.1c0,0,0,0.1,0,0.1c0,0,0.1,0,0.1,0l0,0
					c0.3-0.5,0.6-0.8,1-0.7c0.4,0.1,0.5,0.5,0.4,1c-0.2,1.5-1.3,2.9-2.1,3.8c-0.1,0.1-0.1,0.2-0.1,0.3
					C57.3,35.3,57.3,35.4,57.5,35.2z"/>
				<path d="M95.2,54c0-1.1-0.9-1.9-1.9-1.9H80.7h-0.3h-3h0h-5.4c-3.3,0-7.6-1.6-8.6-2c-0.8-0.3-1.5-0.1-2,0.5l-2.5-8.8
					c-0.1-0.5-0.5-0.9-1.1-0.7c-0.2-0.7-0.4-1.5-0.5-2.1c0.6,0.1,1.1,0,1.5-0.2c1.4-0.6,1.7-1.5,2.3-3.7l0-0.1
					c0.2-0.8,0.6-1.5,0.9-2.2c0.2-0.4,0.4-0.9,0.6-1.4c1.6,0.2,4.3,0.4,6.6-0.2c0.3-0.1,0.7-0.2,1-0.3c0.7-0.3,1.4-0.7,1.8-1.2
					c0,0,0,0,0,0c1.1-1.2,1.5-2.9,1-4.5c-0.6-1.8-2.1-3.2-4.3-3.9c0.9-6.8-1.4-11.3-7.1-13.2c-1.2-4.2-4.9-7.3-9.6-7.9
					C47-0.5,42.5,1.7,40.1,5.9c-0.1,0-0.1,0-0.2,0c-6.6,0-10.5,3.4-11.2,9.8c-1.8-0.1-3.5,0.5-4.6,1.9c-1.2,1.4-1.5,3.3-0.9,4.9
					c0.1,0.4,0.3,0.7,0.6,1c0,0,0,0,0,0c0,0,0.1,0.1,0.1,0.1c1.7,2.2,4.7,2.8,7.9,2.7c0.8,0,1.5,0,2.3-0.1c0,1.2-0.1,2.3-0.1,3.5
					c-0.2,4.3-0.3,8.4,0.2,11.6c0.3,1.9,1,3.5,1.8,4.7c-0.6,1.6-1.3,3.2-2.2,4.5l0,0c-0.6-0.6-1.3-0.8-2.1-0.5c-1,0.4-5.3,2-8.6,2
					h-5.4h-3h-0.2H1.9C0.9,52.1,0,52.9,0,54v16.2c0,1.2,1,2.2,2.2,2.2H3v74.5v2.2h2.2H90h2.2l0,0v-2.2l0,0V72.4H93
					c1.2,0,2.2-1,2.2-2.2L95.2,54z M29.9,22c-2,1.7-4.7,2-5.6,0.3c0-0.1-0.1-0.1-0.1-0.2c-0.5-1.2-0.2-2.7,0.7-3.7
					c1-1.2,2.5-1.7,4.2-1.4c0.2,0,0.3,0,0.5-0.1c0.1-0.1,0.2-0.2,0.2-0.4c0.5-6.3,4-9.4,10.6-9.3c0.2,0,0.4-0.1,0.5-0.3
					c2.6-4.8,7.3-6,10.8-5.5c4.3,0.6,7.7,3.4,8.7,7.3c0,0.2,0.2,0.3,0.4,0.4c5.4,1.8,7.6,5.9,6.5,12.6c0,0.3,0.1,0.6,0.4,0.7
					c2.1,0.5,3.5,1.6,4,3.2c0.4,1.2,0.1,2.5-0.7,3.4c-0.4,0.4-0.8,0.7-1.4,0.9c-5,1.2-6.7-9.7-10.4-15.9c-1.5-2.6-4.9-6.6-9.1-6.6
					C42.5,7.2,40.4,13.4,29.9,22z M38.6,28.2c0,0.2-0.1,0.3-0.1,0.5c-0.7-0.8-1.9-1.2-3.3-1.1c-0.1,0-0.1,0-0.2,0c0-0.5,0-1,0-1.4
					c1.5-0.1,2.6-0.2,3,0.2C38.7,26.8,38.7,27.5,38.6,28.2z M35,38.8c-0.2-2.5-0.1-5.5,0-8.5c0.1-0.8,0.3-1.4,0.6-1.6
					c0.3,1.3,1,1.7,2,1.6c0.2,0,0.3,0,0.5-0.1c-0.1,0.2-0.1,0.5-0.2,0.7c-0.7,2.6-1.4,4.9-1.3,5.7c0,0.5,0.2,1,0.5,1.3
					C36.5,38.6,35.7,40,35,38.8z M37.1,41.7c0.6,0.8,1.4,1.4,2.4,1.5c0.1,0,0.3,0,0.4,0c0.9,0,1.9-0.4,2.7-1.1
					c1.8,0.8,3.7,1.1,4.9-2.2c-0.5,0.3-1,0.5-1.6,0.5c-1.1,0-2-2-3.2-2.4c0.1-0.1,0.2-0.3,0.3-0.4c0.4-0.9-0.1-1.9-1.1-2.3
					c-0.2-0.1-0.5,0-0.6,0.1c-0.1,0.2,0,0.3,0.2,0.4c1,0.4,0.8,1.2,0.7,1.4c-0.1,0.2-0.3,0.4-0.5,0.5c-0.2,0.1-0.5,0.1-0.8-0.1
					c-0.8-0.4-1-0.4-1.7-0.1c-0.1,0-0.2,0.1-0.4,0.1c-0.3,0.1-0.6,0.1-0.8-0.1c-0.3-0.2-0.4-0.5-0.5-0.9c0-0.7,0.7-3.5,1.3-5.4
					c0.3-1.2,0.7-2.4,0.8-3.1c0.2-0.9,0.3-2.3-0.2-3c0,0,0.1,0,0.1,0c2.8-0.8,5.6-1.2,8.3-1.4c3.1-0.2,5.3,1.2,5.6,1.7
					c0.7,1.3-0.2,6.9,2,6.8c1,0,1.2-0.5,1.4-1.4c0.4-2.6,1.8-3.9,3.5-3.3c1.2,0.4,1.5,1.9,1.2,3c-0.2,0.6-0.4,1.1-0.7,1.7
					c-0.3,0.7-0.7,1.5-0.9,2.4l0,0.1c-0.6,2.1-0.8,2.7-1.7,3c-0.4,0.2-1.1,0.2-1.6-0.1L55.6,37l0.4,1.3c0.2,0.7,0.5,1.7,0.7,2.8
					c-2.6,2.5-9.5,7.1-15.4,6.7c-4.1-0.2-5.5-4-6-6.4C35.8,42,36.5,41.9,37.1,41.7z M38,41.4c0.5-0.2,1-0.4,1.5-0.4
					c0.6,0,1.3,0.4,2.2,0.8c-0.6,0.4-1.3,0.6-2,0.5C39,42.2,38.5,41.9,38,41.4z M56.4,42.7c-1.5,2.8-4.6,7.2-7.7,11l-0.9-6
					C51.2,46.4,54.4,44.4,56.4,42.7z M13.8,72.4h0.7c1.2,0,2.2-1,2.2-2.2v-0.6h3.9c-1.1-3-2.5-7.4-3.6-11.1h2.2
					c1,3.4,2.3,7.3,3.4,10.5l0.4,1.2l3.8-3.5l7,3.6l-0.7-2c-1.1-3.1-2.4-7.1-3.4-10.7c0.7-0.2,1.4-0.4,2-0.6
					C32.7,60,33.9,64,35,67.2c0.1,0,0.1,0,0.2,0c0,0,0.1,0,0.1,0c0,0,0.1,0,0.1,0c0,0,0.1,0,0.1,0c0.1,0,0.1,0.1,0.1,0.1
					c0,0,0,0,0.1,0c0.1,0.1,0.1,0.1,0.1,0.2c0,0,0,0,0,0c0,0.1,0,0.1,0,0.2c0,0,0,0,0,0.1c0,0.1,0,0.1,0,0.2c0,0,0,0,0,0
					c0,0.2-0.1,0.3-0.3,0.4c0.5,0.8,1.1,1.4,1.8,1.8c0.2-0.3,0.6-0.4,0.9-0.3c0.3,0.1,0.5,0.5,0.4,0.8c0.4,0.1,0.9,0.2,1.3,0.2
					c0.5,0,0.9-0.1,1.3-0.2c-0.1-0.3,0.1-0.7,0.4-0.8c0.3-0.1,0.7,0,0.9,0.3c0.4-0.2,0.7-0.5,1-0.8h34.8v0.6c0,1.2,1,2.2,2.2,2.2
					h0.8v66H13.8V72.4z M90,146.9H5.2V72.4h2.2v66v6.3h6.3h67.8h6.3v-6.3v-66H90V146.9z"/>
			</g>
			<path class="st1" d="M77.6,56.1c0.6,0,1-0.6,1-1.1v-0.6c0-0.6-0.5-1-1-1h-5.4c-3.4,0-7.6-1.5-8.9-2l-0.1,0
				c-0.1,0-0.2-0.1-0.3-0.1c-0.4,0-0.8,0.5-0.9,0.9l-0.2,0.5c-0.1,0.3-0.1,0.5,0,0.8c0.1,0.2,0.3,0.4,0.6,0.5
				c1.5,0.5,6.1,2.2,9.7,2.2H77.6z"/>
			<path class="st0" d="M38.8,57.4c0.6,0.4,1.4,0.7,2.6,0.3c1.2-0.4,5.9-2.3,5.9-2.3l-5.3,4.9h-3.7l-2.2-5.1L38.8,57.4z"/>
			<polygon class="st0" points="46.7,48.2 47.7,54.6 41.6,53.5 			"/>
			<polygon class="st0" points="35,53.7 37.8,47.8 40.4,53.3 			"/>
			<path class="st1" d="M55.5,67.1c1.1-0.2,2.9-0.8,4.2-1.8c-0.5-0.7-1.1-2.1-1.1-3c0,0-1.5,0.9-2.3,1.9c0,0,0.2-1.4,1.4-2.8
				c1-1.1,1.5-1.4,1.4-2c-0.1-0.6-0.8-1.2-2.5-0.8c-1.7,0.4-3.2,2.1-2.9,4.6C53.9,64.8,54.9,66.2,55.5,67.1z"/>
			<path class="st1" d="M64,67.9c1.6-0.8,3.9-2.8,4.4-5c0.5-2.2-0.3-3.1-1.3-3.4c-0.6-0.2-1.7-0.1-2.1,0.9c-0.4,0.9-0.6,1.6-0.9,3.3
				c-0.4-1.7-0.6-2.4-0.9-3.3c-0.4-1-1.5-1.1-2.1-0.9c-1,0.4-1.8,1.2-1.3,3.4C60.1,65.1,62.4,67.1,64,67.9z"/>
			<path class="st1" d="M72.5,67.1c-1.1-0.2-2.9-0.8-4.2-1.8c0.5-0.7,1.1-2.1,1.1-3c0,0,1.5,0.9,2.3,1.9c0,0-0.2-1.4-1.4-2.8
				c-1-1.1-1.5-1.4-1.4-2c0.1-0.6,0.8-1.2,2.5-0.8c1.7,0.4,3.2,2.1,2.9,4.6C74.2,64.8,73.2,66.2,72.5,67.1z"/>
			<g>
				<path class="st0" d="M58.1,46.2L58.1,46.2l-0.7-2.6c-1.9,3.1-4.5,7-8,11.4C52.6,52.2,56.2,48.6,58.1,46.2z"/>
				<path class="st0" d="M59.2,49.8c-2.2,2.5-5.4,5.6-8.1,7.9c1.4-0.7,7.3-4.5,7.8-4.9c0.4-0.3,0.8-0.9,0.6-1.8
					C59.4,50.5,59.2,50,59.2,49.8z"/>
			</g>
			<g>
				<path class="st2" d="M66.1,81.1l-4.3-4.8C61.6,76,61.5,76,61.3,76c-0.2,0-0.3,0-0.5,0.3l-2.1,1.8H41.9v4.1h24.2
					c0.3,0,0.4-0.2,0.4-0.4C66.5,81.6,66.4,81.4,66.1,81.1z"/>
				<path class="st2" d="M67.2,99.1l-4.3-4.8c-0.2-0.2-0.3-0.3-0.5-0.3c-0.2,0-0.3,0-0.5,0.3l-2.1,1.8H41.6v4.1h25.7
					c0.3,0,0.4-0.2,0.4-0.4C67.6,99.6,67.5,99.4,67.2,99.1z"/>
				<path class="st2" d="M26.2,92c2.2,0,4.1-0.2,5.8-0.7c0.4,0.2,0.4,0.4,0.4,0.7v10c0,0.6,0.3,0.8,1,0.7l4.9-1.2
					c0.7-0.2,0.8-0.6,0.8-1.2c0-0.5-0.4-0.6-0.4-1.6v-5.1l1.2-1.3C40,92.2,40,92.1,40,92c0-0.1-0.1-0.3-0.3-0.3l-4.4-1.9
					c2.2-1.4,3.5-3.6,3.5-6.3v-4.4l0.9-1C40,78,40,77.9,40,77.8c0-0.1-0.1-0.3-0.4-0.3l-7.4-2.7v10C32.2,88,27.9,90.9,26.2,92z"/>
				<path class="st2" d="M48.2,128.9c2,0.5,5.8,2.8,6.7,5.4c3.3,0,7.9-0.8,7.9-3v-5.5h8.3c0.3,0,0.4-0.2,0.4-0.4
					c0-0.2-0.1-0.4-0.4-0.7l-3.7-4.6c-0.2-0.2-0.3-0.3-0.5-0.3c-0.2,0-0.3,0-0.5,0.3l-2,2.3h-1.6v-10.3l3.7-3
					c0.1-0.1,0.3-0.2,0.3-0.4c0-0.2-0.1-0.2-0.3-0.3l-5.8-3.2c0,0-0.3-0.2-0.6-0.2s-0.7,0.2-0.7,0.2l-2.4,1.7H40.3l-7-2.1v17.5h-6.8
					l1.1,3.4h5.7c0,4.5-3.6,7.8-4.9,9c3.6-0.3,11.2-2.8,11.2-9v-15.5h17.1v12.1H39.5v3.4l17.1,0v2.1c0,0.7-0.5,1-1.3,1H48.2z"/>
			</g>
			<path class="st2" d="M43.3,111.3c1.7,0,5,1,6.5,2.2c1.5,1.2,2.4,2.6,2.4,4.4c0,1.7-1.3,3.7-3.7,3.7c-2.4,0-3.8-2-3.8-3.7
				c0-1.5,0.7-2.1,0.6-3.5C45.3,113.3,44.1,111.8,43.3,111.3z"/>
			<path class="st1" d="M17.7,56.1c-0.6,0-1-0.6-1-1.1l0-0.6c0-0.6,0.5-1,1-1h5.4c3.4,0,7.6-1.5,8.9-2l0.1,0c0.1,0,0.2-0.1,0.3-0.1
				c0.4,0,0.8,0.5,0.9,0.9l0.2,0.5c0.1,0.3,0.1,0.5,0,0.8c-0.1,0.2-0.3,0.4-0.6,0.5c-1.5,0.5-6.1,2.2-9.7,2.2H17.7z"/>
			<path class="st1" d="M39.4,70.1v-1.4l-0.1,0c-0.2-0.1-0.5-0.2-0.7-0.3l0,0l-1,1l-1-1l1-1l0,0c-0.1-0.2-0.2-0.5-0.3-0.7l0-0.1
				h-1.4v-1.4h1.4l0-0.1c0.1-0.2,0.2-0.5,0.3-0.7l0,0l-1-1l1-1l1,1l0,0c0.2-0.1,0.5-0.2,0.7-0.3l0.1,0v-1.4h1.4v1.4l0.1,0
				c0.3,0.1,0.5,0.2,0.7,0.3l0.1,0l1-1l1,1l-1,1l0,0c0.1,0.2,0.2,0.5,0.3,0.7l0,0.1h1.4v1.4h-1.4l0,0.1c-0.1,0.3-0.2,0.5-0.3,0.7
				l0,0.1l1,1l-1,1l-1-1l0,0c-0.3,0.1-0.5,0.2-0.7,0.3l-0.1,0v1.4H39.4z"/>
			<path d="M41.5,65.9c0,0.8-0.7,1.5-1.5,1.5c-0.8,0-1.5-0.7-1.5-1.5c0-0.8,0.7-1.5,1.5-1.5C40.9,64.4,41.5,65,41.5,65.9z"/>
			<path class="st2" d="M26.5,64.6l-2.8,2.6c-0.8-2.3-1.7-4.9-2.4-7.4l2.7-2.7l4.4,2.1c0.7,2.5,1.6,5.4,2.4,7.7L26.5,64.6z"/>
			<path class="st1" d="M2.8,70.9c-0.6,0-1-0.5-1-1v-9.5c0-0.6,0.5-1.1,1-1.1c0.6,0,1.1,0.5,1.1,1.1v9.5C3.8,70.4,3.3,70.9,2.8,70.9
				z"/>
			<path class="st1" d="M10.2,70.9c-0.6,0-1.1-0.5-1.1-1v-9.5c0-0.6,0.5-1.1,1.1-1.1c0.6,0,1.1,0.5,1.1,1.1v9.5
				C11.3,70.4,10.8,70.9,10.2,70.9z"/>
			<path class="st1" d="M14,70.9c-0.6,0-1-0.5-1-1v-9.5c0-0.6,0.5-1.1,1-1.1c0.6,0,1.1,0.5,1.1,1.1v9.5C15,70.4,14.6,70.9,14,70.9z"
				/>
			<path class="st1" d="M6.5,70.9c-0.6,0-1.1-0.5-1.1-1v-9.5c0-0.6,0.5-1.1,1.1-1.1c0.6,0,1,0.5,1,1.1v9.5
				C7.6,70.4,7.1,70.9,6.5,70.9z"/>
			<path class="st1" d="M64.8,57.5c0,0.5-0.4,0.8-0.8,0.8c-0.5,0-0.8-0.4-0.8-0.8c0-0.5,0.4-0.8,0.8-0.8
				C64.5,56.7,64.8,57,64.8,57.5z"/>
			<path class="st1" d="M61.8,57.5c0,0.5-0.4,0.8-0.8,0.8c-0.5,0-0.8-0.4-0.8-0.8c0-0.5,0.4-0.8,0.8-0.8
				C61.5,56.7,61.8,57,61.8,57.5z"/>
			<path class="st1" d="M66.2,57.5c0,0.5,0.4,0.8,0.8,0.8c0.5,0,0.8-0.4,0.8-0.8c0-0.5-0.4-0.8-0.8-0.8C66.6,56.7,66.2,57,66.2,57.5
				z"/>
			<path class="st1" d="M15.6,56c0,1.1-0.6,2-1.8,2c-0.8,0-1.4-0.5-1.8-1.1c-0.3,0.7-1,1.1-1.8,1.1c-0.8,0-1.5-0.5-1.8-1.1
				C8,57.6,7.4,58,6.6,58c-0.8,0-1.5-0.5-1.8-1.1C4.5,57.6,3.8,58,3,58c-1.2,0-1.8-0.9-1.8-2v-2c0-0.4,0.3-0.7,0.7-0.7h12.9
				c0.4,0,0.7,0.3,0.7,0.7L15.6,56z"/>
			<path class="st1" d="M81.3,70.9c-0.6,0-1.1-0.5-1.1-1v-9.5c0-0.6,0.5-1.1,1.1-1.1c0.6,0,1.1,0.5,1.1,1.1v9.5
				C82.3,70.4,81.8,70.9,81.3,70.9z"/>
			<path class="st1" d="M88.7,70.9c-0.6,0-1.1-0.5-1.1-1v-9.5c0-0.6,0.5-1.1,1.1-1.1c0.6,0,1,0.5,1,1.1v9.5
				C89.8,70.4,89.3,70.9,88.7,70.9z"/>
			<path class="st1" d="M92.5,70.9c-0.6,0-1.1-0.5-1.1-1v-9.5c0-0.6,0.5-1.1,1.1-1.1c0.6,0,1,0.5,1,1.1v9.5
				C93.5,70.4,93.1,70.9,92.5,70.9z"/>
			<path class="st1" d="M85,70.9c-0.6,0-1-0.5-1-1v-9.5c0-0.6,0.5-1.1,1-1.1c0.6,0,1.1,0.5,1.1,1.1v9.5C86.1,70.4,85.6,70.9,85,70.9
				z"/>
			<path class="st1" d="M94.1,56c0,1.1-0.6,2-1.8,2c-0.8,0-1.4-0.5-1.8-1.1c-0.3,0.7-1,1.1-1.8,1.1c-0.8,0-1.5-0.5-1.8-1.1
				c-0.3,0.7-1,1.1-1.8,1.1c-0.8,0-1.5-0.5-1.8-1.1c-0.3,0.7-1,1.1-1.8,1.1c-1.2,0-1.8-0.9-1.8-2v-2c0-0.4,0.3-0.7,0.7-0.7h12.9
				c0.4,0,0.7,0.3,0.7,0.7V56z"/>
			<g>
				<path class="st1" d="M50.7,17.7c0.7,1.3,0.3,2.9-1,3.7c-1.3,0.8-2.9,0.5-3.8-0.7l-4.7-6.2c-0.3-0.4-0.3-1,0-1.4
					c0.7-0.9,2.6-2.4,4-3.3c0,0,0.1,0,0.1-0.1c0.5-0.3,1.2-0.1,1.5,0.5L50.7,17.7z"/>
				<path d="M50,19.8c-0.2,0.4-0.3,0.6-0.7,0.8c-0.8,0.5-2,0.3-2.6-0.5L41.9,14c-0.1-0.1-0.1-0.2,0-0.2c0.5-0.6,1.2-1.2,2.3-2
					c0.3-0.2,0.6-0.1,0.8,0.2l2.7,4.8c0.2,0.3,0.1,0.6-0.2,0.8c-0.6,0.5-0.5,1.5-0.1,1.9c0.4,0.5,1.3,0.6,1.7,0.2
					c0.1-0.1,0.2-0.1,0.2-0.2c0.1-0.1,0.3-0.1,0.4,0C49.9,19.5,50,19.7,50,19.8z"/>
			</g>
			<path d="M49.1,18.2c0.2,0.3,0.1,0.7-0.2,0.9c-0.3,0.2-0.7,0.1-0.9-0.2c-0.2-0.3-0.1-0.7,0.2-0.9C48.4,17.8,48.9,17.9,49.1,18.2z"
				/>
			<path class="st1" d="M61.6,22.5c0.1,0.4,0,0.8-0.3,1L58.5,26c-0.3,0.2-0.6,0.1-0.8-0.1c-0.2-0.3-0.1-0.6,0.1-0.8l0.3-0.3
				c0.2-0.2,0.2-0.4,0.1-0.7l-0.3-0.7c-0.1-0.2-0.4-0.3-0.6-0.2L57,23.5c-0.1,0.1-0.2,0.1-0.3,0.1c-0.2,0-0.4-0.2-0.4-0.4
				c0-0.1,0-0.2,0.1-0.3l3.4-2.9c0.1-0.1,0.2-0.1,0.3-0.1c0.2,0,0.4,0.2,0.5,0.4C60.9,20.5,61.5,22.1,61.6,22.5z"/>
			<path d="M60.2,22.1c0.2,0.3,0.1,0.7-0.2,0.9c-0.3,0.2-0.7,0.1-0.9-0.2c-0.2-0.3-0.1-0.7,0.2-0.9C59.6,21.7,60,21.8,60.2,22.1z"/>
		</g>
		<g>
			<rect x="110.1" y="80.3" class="st3" width="174.4" height="40.2"/>
			<g>
				<path d="M202.1,80.3c-0.6,10.9-6.4,16.1-6.4,16.1v8.1c0,0,1.9-1.1,4.3-3.6v19.6h6V96.9h-2.9c2.4-3.8,4.6-9.2,5-16.5H202.1z"/>
				<path d="M267.1,92.7c-0.5-1.9-1.8-3.1-3.8-3.9c-1.4-0.6-3.5-0.9-5.6-0.8v2c0.5,0.1,1.2,0.5,1.4,1.1c0.3,1.3-0.6,2.2-0.1,3.9
					c0.5,1.8,2.5,3.6,5.1,2.9C266.8,97.1,267.6,94.5,267.1,92.7z"/>
				<path d="M124.1,104.7h5.6v-3.8c0-0.4-0.3-0.7-0.7-0.7H123v-3.1h-5.4v3.1h-6.8v3.8h0c0,0.4,0.3,0.7,0.7,0.8h4.9
					c-1.3,2.4-3.4,5.3-6.3,7.6v6.2c3.2-2,5.9-5,7.4-7.2v9.2h5.4v-9.2c1.5,2.2,4.2,5.2,7.4,7.2v-6.2
					C127.5,110,125.5,107.1,124.1,104.7z"/>
				<path d="M144.4,104.7h5.6v-3.8c0-0.4-0.3-0.7-0.7-0.7h-6.1v-3.1h-5.4v3.1H131v3.8c0,0.4,0.3,0.7,0.7,0.7h4.9
					c-1.3,2.4-3.4,5.3-6.3,7.6v6.2c3.2-2,5.9-5,7.4-7.2v9.2h5.4v-9.2c1.5,2.2,4.2,5.2,7.4,7.2v-6.2
					C147.7,110,145.7,107.1,144.4,104.7z"/>
				<path d="M211.5,87.4h24.4v-4.1c0-0.5-0.4-0.9-0.9-0.9v0h-24.2v4.4C210.9,87.1,211.2,87.4,211.5,87.4z"/>
				<path d="M284.5,101.1c0-0.5-0.4-0.9-0.9-0.9h-4V85.4v-4.1c0-0.5-0.4-0.9-0.9-0.9h-5.1h-22.1h-6h0c0,0,0,10.3,0,19.9H241v4.1h0
					c0,0.5,0.4,0.9,0.9,0.9v0h3.3c-0.7,6.2-3,8.6-3,8.6v7.9c0,0,7.8-4,9.1-16.5h22.3v8.5l0,0c0,1.3-0.5,1.8-1.8,1.8l0,0h-4.1v5h5.9
					v0h1.7l-0.1,0c2.6,0,4.4-1.7,4.4-4.4v-10.9h4.9V101.1z M251.5,100.2c0-7.1,0-11.8,0-14.8h22.1v14.8H251.5z"/>
				<path d="M191.9,82.4h-38.5v4.1h0c0,0.5,0.4,0.9,0.9,0.9h13.6v33.1h6.3v-19.1c6.4,3.1,12.1,6.7,14,8v-7.2c-3.9-2.4-8.6-4.8-14-7
					v-7.8h18.3v-4.2C192.6,82.8,192.3,82.5,191.9,82.4z"/>
				<path d="M127.7,99h5.4v-7.9c3.3,3,11.7,7.2,16.2,7.9l0-6c-4.6-0.8-9-3.3-12.1-5.6h12.1v-3.8c0-0.4-0.3-0.7-0.6-0.7h-15.6v-3.1
					h-5.4v3.1h-16.3v3.8c0,0.4,0.3,0.7,0.7,0.7h11.4c-3.1,2.3-7.5,4.8-12.1,5.6l0,6c4.6-0.8,13.1-5,16.3-8V99z"/>
				<path d="M236.8,112.8L236.8,112.8l-27.7,0v4.1h0c0,0.5,0.4,0.9,0.9,0.9h27.7v-4.3C237.5,113.1,237.2,112.8,236.8,112.8z"/>
			</g>
		</g>
	</g>
</g>
<g id="フレーム">
	<rect x="-2869.4" y="-2284.9" class="st3" width="595.3" height="841.9"/>
	<rect x="-2254.1" y="-2284.9" class="st3" width="595.3" height="841.9"/>
	<rect x="-1638.8" y="-2284.9" class="st3" width="595.3" height="841.9"/>
	<rect x="-1023.6" y="-2284.9" class="st3" width="595.3" height="841.9"/>
	<rect x="-1023.6" y="300.8" class="st3" width="595.3" height="841.9"/>
	<rect x="-1638.8" y="300.8" class="st3" width="595.3" height="841.9"/>
	<rect x="-2254.1" y="300.8" class="st3" width="595.3" height="841.9"/>
	<rect x="-2869.4" y="300.8" class="st3" width="595.3" height="841.9"/>
	<rect x="-2869.4" y="-561.1" class="st3" width="595.3" height="841.9"/>
	<rect x="-2254.1" y="-561.1" class="st3" width="595.3" height="841.9"/>
	<rect x="-1638.8" y="-561.1" class="st3" width="595.3" height="841.9"/>
	<rect x="-1023.6" y="-561.1" class="st3" width="595.3" height="841.9"/>
	<rect x="-1023.6" y="-1423" class="st3" width="595.3" height="841.9"/>
	<rect x="-2869.4" y="-1423" class="st3" width="595.3" height="841.9"/>
	<rect x="-2254.1" y="-1423" class="st3" width="595.3" height="841.9"/>
	<rect x="-1638.8" y="-1423" class="st3" width="595.3" height="841.9"/>
</g>
</svg>
