<svg xmlns="http://www.w3.org/2000/svg" width="210.38" height="109.798"><g data-name="グループ 8739"><g data-name="20200408_tiliro_logo"><g data-name="グループ 8737"><path data-name="パス 6704" d="M34.177 103.328l-.754-.609-.328.422-3.376.281c-.656-.516-.8-.609-.938-.609s-.188.047-.469.234l-.094.047.094.047c.141.094.188.094.234.141.047 0 .047.047.094.047.141.094.141.094.188.281.047.281.047.422.141 2.25.047 1.031.047 1.031.047 1.172a.916.916 0 01-.047.328v.141c0 .188.328.563.516.563a.334.334 0 00.328-.375v-.234a16.191 16.191 0 012.625-.188 4.35 4.35 0 011.219.141h.141a.263.263 0 00.234-.281c0-.188-.094-.281-.609-.516l.516-2.578.094-.047c.281-.094.375-.188.375-.328.003-.095-.043-.189-.231-.33zm-1.078.422a60.605 60.605 0 01-.328 2.86c-1.266.047-2.344.141-3 .234v-.656l-.094-1.875v-.328a28.5 28.5 0 013.188-.281h.234z"/><path data-name="パス 6705" d="M44.632 104.734h-.141a.509.509 0 01-.234.047l-4.266.141h-.563c-.328 0-.422-.047-.516-.281q-.07-.141-.141-.141c-.141 0-.188.281-.188.375 0 .141.047.188.234.516s.234.422.375.422c.047 0 .047 0 .281-.141.094-.094.188-.094.609-.094l2.907-.047h.422a7.046 7.046 0 011.266.047h.188c.141 0 .234-.141.234-.328a.6.6 0 00-.467-.516z"/><path data-name="パス 6706" d="M52.883 105.438a21.126 21.126 0 001.406-2.016c.328-.094.469-.141.469-.281 0-.188-.516-.609-.938-.891l-.047-.047-.234.281-3.188.422a1.316 1.316 0 01-.234.047c-.141 0-.328-.141-.516-.422l-.047-.094-.047.094c-.188.281-.234.328-.234.469s.047.188.281.469c.422.469.422.469.563.469a.725.725 0 00.281-.141 1.659 1.659 0 01.75-.281l.609-.141c.094 0 .188-.047.328-.047.141-.047.281-.047.469-.094h.047c.516-.094.7-.141.938-.187a11.726 11.726 0 01-4.829 5.345c-.281.141-.328.188-.328.328 0 .094.094.141.188.141a6.171 6.171 0 001.5-.75 10.664 10.664 0 002.672-2.391 9.841 9.841 0 012.391 2.2c.234.375.375.516.563.516a.463.463 0 00.422-.469c-.14-.701-1.312-1.638-3.235-2.529z"/><path data-name="パス 6707" d="M55.087 102.813c.188.281.281.375.422.375a.4.4 0 00.375-.375c0-.516-.609-.985-1.547-1.172h-.047l-.047.281h.047a2.531 2.531 0 01.797.891z"/><path data-name="パス 6708" d="M55.04 100.984h-.047l-.047.281h.047a1.565 1.565 0 01.891.8c.188.281.281.328.422.328a.4.4 0 00.375-.375c0-.518-.704-.94-1.641-1.034z"/><path data-name="パス 6709" d="M66.575 107.642a.354.354 0 00-.187.047 6.825 6.825 0 01-2.063.188c-.985 0-1.406-.047-1.594-.188-.094-.094-.094-.234-.094-.469v-2.11a35.131 35.131 0 004.126-1.125q.281-.141.281-.281c0-.141-.094-.281-.375-.516a2.158 2.158 0 00-.844-.469.824.824 0 00-.281.047c-.094.047-.094.047-.141.141v.047l.047.047a1.694 1.694 0 01.422.375c0 .234-2.2.938-3.188 1.266l.047-1.828c0-.094 0-.094.141-.188a.239.239 0 00.188-.234c0-.188-.094-.234-.375-.422a2.768 2.768 0 00-.8-.375c-.094 0-.234.094-.516.328l-.094.047.094.047c.609.281.609.281.609.422v4.5c0 .844.188 1.219.609 1.406a6.462 6.462 0 002.016.188c.563 0 1.782-.047 2.11-.094.422-.047.469-.281.469-.422a.916.916 0 00-.607-.375z"/><path data-name="パス 6710" d="M73.652 105.11c.094.328.141.422.375.422a.4.4 0 00.375-.375c0-.563-.609-1.172-1.406-1.36h-.047l-.141.188.047.047a1.838 1.838 0 01.797 1.078z"/><path data-name="パス 6711" d="M72.433 105.954a.383.383 0 00.375-.422c0-.516-.469-.938-1.266-1.266h-.047l-.141.234.047.047a1.5 1.5 0 01.609.938c.145.375.189.469.423.469z"/><path data-name="パス 6712" d="M75.856 103.844a.172.172 0 00-.141.047c-.047 0-.047 0-.047.047h-.047l-.234.094.094.047c.281.234.328.328.328.375a2.538 2.538 0 01-.281.75 6.8 6.8 0 01-1.735 2.25 6.967 6.967 0 01-1.453.938c-.141.094-.234.141-.234.234a.124.124 0 00.141.141 3.825 3.825 0 00.516-.188 6.781 6.781 0 002.579-1.922 7.765 7.765 0 001.078-1.688c.188-.094.281-.141.281-.234a1.746 1.746 0 00-.845-.891z"/><path data-name="パス 6713" d="M86.029 102.438l-.047-.047-.188.328c-.985.047-1.5.094-1.641.094l-1.828.141c-.75.047-.8.047-.8.047-.188 0-.234-.047-.75-.469l-.047-.047-.047.047a.761.761 0 00-.234.422 2.606 2.606 0 001.031.985.666.666 0 00.281-.094c.375-.234.375-.234 3.235-.516l.75-.094a7.18 7.18 0 01-4.126 5.251q-.281.141-.281.281a.2.2 0 00.188.188 5.372 5.372 0 001.078-.469 6.753 6.753 0 002.954-2.579 9.111 9.111 0 001.031-2.3c.234-.094.328-.141.328-.281.098-.091-.043-.235-.887-.888z"/><path data-name="パス 6714" d="M87.67 100.984a1.051 1.051 0 00-1.078 1.031 1.09 1.09 0 001.078 1.078 1.051 1.051 0 001.031-1.078 1.041 1.041 0 00-1.031-1.031zm-.047.422a.633.633 0 11.047 1.266.621.621 0 01-.609-.609.57.57 0 01.562-.657z"/><path data-name="パス 6715" d="M99.484 102.484l-.328.469h-2.485v-1.641l.234-.188a.339.339 0 00.188-.281c0-.141-.141-.234-.375-.234l-.938-.047v2.391h-2.25l-1.078-.469v6.939c0 .141.047.281.234.281.328 0 .609-.188.609-.422v-.42h5.907v.328a.145.145 0 00.047.094.356.356 0 00.188.094c.328 0 .656-.187.656-.422v-5.345l.234-.094a.15.15 0 00.141-.141c0-.094-.047-.141-.094-.141zm-.234.844v2.391h-2.578v-2.391zm0 2.766v2.438h-2.578v-2.438zm-3.469-2.766v2.391h-2.485v-2.391zm0 2.766v2.438h-2.485v-2.438z"/><path data-name="パス 6716" d="M106.564 104.407c.094.563.188.75.469.75s.469-.234.469-.609a1.856 1.856 0 00-.891-1.406 2.227 2.227 0 00-.891-.422h-.047l-.047.234.047.047a2.064 2.064 0 01.891 1.406z"/><path data-name="パス 6717" d="M109.472 105.579h3.7a.251.251 0 00.234-.234.339.339 0 00-.188-.281l-.844-.609-.656.7h-2.532v-2.719h1.735v.047a31.057 31.057 0 01-.985 2.344.282.282 0 00-.047.188.15.15 0 00.141.141c.094 0 .141-.047.328-.281.844-.985.844-.985 1.172-1.406l.281-.094a.266.266 0 000-.469l-.8-.422h1.828a.2.2 0 00.188-.188.258.258 0 00-.141-.234l-.891-.656-.609.7h-2.11v-.891l.281-.141a.239.239 0 00.188-.234.3.3 0 00-.281-.281l-1.031-.094v1.688h-1.641c-.844 0-1.078 0-1.969-.047h-.094l.188.516h.055c.844-.047 1.125-.047 1.828-.047h1.641v2.719h-2.2c-.609 0-.984 0-1.969-.047h-.1l.188.469h.047c.891-.047 1.219-.047 1.828-.047h1.547a9.206 9.206 0 01-3.469 3.61c-.094.047-.141.094-.141.188a.124.124 0 00.141.141 6.21 6.21 0 001.36-.7 11.04 11.04 0 002.766-2.625v3.141c0 .234 0 .375.234.375a1.1 1.1 0 00.375-.094.346.346 0 00.234-.281v-3.329a8.224 8.224 0 003.188 3.282l.047.047.047-.047a1.676 1.676 0 01.984-.7l.141-.047-.141-.047a9.023 9.023 0 01-4.076-3.004z"/><path data-name="パス 6718" d="M119.315 103.141a.282.282 0 00.188-.047 9 9 0 012.954-.375 4.345 4.345 0 01.938.047c.141 0 .234.047.328.047a.221.221 0 00.234-.234c0-.234-.281-.469-.938-.8h-.047l-.375.328-1.828.188c-.328.047-.8.094-1.078.141-.141 0-.281.047-.375.047a1.469 1.469 0 01-.7-.469l-.047-.047h-.047c-.094.047-.141.047-.141.094a.869.869 0 00-.094.328c0 .094.094.234.328.422a3.973 3.973 0 00.7.33z"/><path data-name="パス 6719" d="M124.379 103.61l-.516.281h-.188c-1.453.047-3.235.188-4.923.328a2.724 2.724 0 01-.469.047c-.281 0-.516-.187-.8-.516l-.047-.047-.047.047a.577.577 0 00-.234.469 2.011 2.011 0 00.985.985c.047 0 .094-.047.234-.094a1.489 1.489 0 01.516-.187l1.031-.188a9.475 9.475 0 011.266-.141c.141.188.188.234.188.375a8.791 8.791 0 01-1.216 2.441 7.17 7.17 0 01-1.547 1.594c-.094.094-.188.141-.188.234a.15.15 0 00.141.141c.047 0 .094 0 .328-.141a8.687 8.687 0 001.875-1.547 9.766 9.766 0 001.36-2.11l.188-.328c.141-.047.234-.094.234-.234a.4.4 0 00-.141-.234l-.281-.188h.609a10.729 10.729 0 012.063.141 1.311 1.311 0 00.281.047.263.263 0 00.234-.281c.001-.331-.467-.66-.936-.894z"/><path data-name="パス 6720" d="M132.864 103.281c-.281-.281-.375-.328-.563-.328a.314.314 0 00-.328.188q0 .07.141.141a1.692 1.692 0 01.234.188 17.844 17.844 0 01-1.36 1.5 11.274 11.274 0 01-2.672 1.828c-.141.047-.188.094-.188.188a.15.15 0 00.141.141 5.925 5.925 0 001.078-.422 12.9 12.9 0 001.782-1.125v1.5c0 1.125-.047 1.313-.094 1.313v.141c0 .141.281.328.422.328a.535.535 0 00.281-.141c.047-.047.047-.141.047-.328v-2.954c.141-.047.188-.094.188-.234 0-.094-.047-.141-.188-.188a4.7 4.7 0 00.469-.422l.141-.094c.094-.094.328-.328.609-.563.281-.047.375-.094.375-.281-.14-.048-.187-.095-.515-.376z"/><path data-name="パス 6721" d="M139.803 102.578v3.188a.485.485 0 01-.047.188.6.6 0 00.516.516.4.4 0 00.375-.375 1.056 1.056 0 00-.047-.328v-3c.188-.141.234-.234.234-.328s-.094-.141-.187-.234a4.559 4.559 0 00-.891-.375c-.141 0-.281.094-.469.375l-.047.047.094.047c.469.185.469.185.469.279z"/><path data-name="パス 6722" d="M143.46 101.734a3.218 3.218 0 00-.938-.328c-.141 0-.281.094-.469.375l-.047.094.094.047a1.815 1.815 0 01.7.328v2.063c-.094 1.782-.328 2.672-.985 3.422a4.692 4.692 0 01-1.969 1.313c-.422.188-.516.234-.516.328a.124.124 0 00.141.141 5.841 5.841 0 00.985-.328 5.151 5.151 0 002.344-1.688 6.459 6.459 0 00.75-3.141v-1.922c.141-.188.188-.234.188-.328.003-.188-.091-.282-.278-.376z"/><path data-name="パス 6723" d="M154.711 103.328l-.754-.609-.328.422-3.376.281c-.656-.516-.8-.609-.938-.609s-.187.047-.469.234l-.094.047.094.047c.141.094.188.094.234.141.047 0 .047.047.094.047.141.094.141.094.188.281.047.281.047.375.141 2.25.047 1.031.047 1.031.047 1.172a.916.916 0 01-.047.328v.141c0 .188.328.563.516.563a.334.334 0 00.328-.375v-.234a16.191 16.191 0 012.625-.188 4.349 4.349 0 011.219.141h.141a.263.263 0 00.234-.281c0-.188-.094-.281-.609-.516l.516-2.578.094-.047c.281-.094.375-.188.375-.328.003-.095-.043-.189-.231-.33zm-1.031.422a60.605 60.605 0 01-.328 2.86c-1.266.047-2.344.141-3 .234v-.656l-.094-1.875v-.328a28.5 28.5 0 013.188-.281h.234z"/><path data-name="パス 6724" d="M166.531 103.469l-.469.234c-.094 0-.188.047-.281.047h-.891l-.047-1.36v-.094c0-.141 0-.141.094-.234.141-.141.141-.188.141-.281 0-.188-.141-.281-.609-.469-.141-.047-.187-.094-.281-.094-.047 0-.094-.047-.141-.047a.172.172 0 00-.141-.047c-.094 0-.188.047-.422.281l-.188.141.094.047c.047 0 .047 0 .234.094.422.188.422.188.469.328v1.782c-1.078.094-1.453.141-1.969.188v-1.266a.164.164 0 00.047-.094c.141-.141.188-.188.188-.281 0-.187-.375-.375-.609-.469a2.718 2.718 0 00-.609-.188c-.094 0-.141.047-.375.281l-.141.141.094.047a1.724 1.724 0 01.656.281v1.594h-.144a.351.351 0 00-.234.047 7.892 7.892 0 01-.938.094c-.234 0-.328-.047-.7-.469l-.141-.141-.047.047c-.188.281-.234.375-.234.422a1.342 1.342 0 00.422.563c.375.422.516.469.656.375a4.592 4.592 0 011.406-.422v1.266c0 .094-.047.281-.047.375a.423.423 0 00-.047.234.648.648 0 00.563.516.244.244 0 00.188-.094.5.5 0 00.094-.281l-.047-2.157c.985-.141 1.36-.141 1.922-.188a4.808 4.808 0 01-2.532 4.735q-.281.141-.281.281a.124.124 0 00.141.141c.047 0 .141 0 .8-.328a4.562 4.562 0 002.391-2.672 6.1 6.1 0 00.234-2.157 7.432 7.432 0 011.828.141l.141.047a2.06 2.06 0 00.422.047.221.221 0 00.234-.234c.086-.187-.149-.375-.894-.75z"/><path data-name="パス 6725" d="M177.309 101.547c-.375-.281-.422-.281-.516-.281-.047 0-.094 0-.234.094-.047 0-.094.047-.141.047a.1.1 0 00-.094.094v.141h.047c.281.094.422.281.422.375 0 .047 0 .047-.234.328a24.754 24.754 0 01-1.926 1.921 13.724 13.724 0 01-3.376 2.344c-.281.141-.328.188-.328.281a.2.2 0 00.188.188 7.567 7.567 0 001.313-.563 21.015 21.015 0 002.672-1.688v2.016a6.061 6.061 0 01-.141 2.016v.188c0 .188.281.422.516.422a.383.383 0 00.375-.422v-4.266c.188-.141.281-.188.281-.328s-.094-.188-.281-.234c.281-.234.563-.516 1.125-1.078l.469-.469c.375-.094.516-.187.516-.375.05-.232-.329-.563-.653-.751z"/><path data-name="パス 6726" d="M186.545 104.969a5.512 5.512 0 00-1.922-.656l.047-1.5a1.307 1.307 0 01.047-.469l.047-.047.047-.047a.405.405 0 00.141-.281c0-.141-.188-.328-.516-.516a2.871 2.871 0 00-.7-.328c-.094 0-.187.047-.469.281l-.047.047.094.047c.563.328.563.328.609.469v4.969l-.047 1.219c0 .094 0 .328-.047.328a1.617 1.617 0 00-.047.422.6.6 0 00.563.516.32.32 0 00.328-.328v-4.407a5.548 5.548 0 012.391 1.782.449.449 0 00.422.234.383.383 0 00.375-.422c-.004-.375-.472-.844-1.316-1.313z"/><path data-name="パス 6727" d="M186.498 101.781l-.188.188.047.047a2.708 2.708 0 01.844.938c.141.234.234.328.422.328a.4.4 0 00.375-.375c0-.47-.61-.938-1.5-1.126z"/><path data-name="パス 6728" d="M188.419 101.453a2.632 2.632 0 00-.891-.234h-.047l-.094.234.047.047a2.776 2.776 0 01.844.8c.234.328.281.375.422.375a.413.413 0 00.375-.422c.048-.284-.187-.565-.656-.8z"/><path data-name="パス 6729" d="M21.707 14.018a5.846 5.846 0 001.313.7 14.927 14.927 0 001.547.375 14.087 14.087 0 011.5.328 4.848 4.848 0 011.219.563 1.859 1.859 0 01.7 1.031 1.772 1.772 0 01.047.844 1.227 1.227 0 01-.281.609 1.876 1.876 0 01-.563.469 2.071 2.071 0 01-.75.281 2.477 2.477 0 01-1.172 0 3.858 3.858 0 01-1.172-.563 6.1 6.1 0 01-1.078-.844c-.328-.328-.656-.656-.938-.985a.234.234 0 00-.281 0l-.141.141a.282.282 0 00-.047.188l.844 1.688c.281.563.516 1.125.75 1.688a.1.1 0 00.094.094h.047c.047 0 .094 0 .094-.047l.281-.188a.358.358 0 01.234-.094 1.041 1.041 0 01.422-.047h.7a4.549 4.549 0 00.8-.047 2.19 2.19 0 00.8-.141 4.152 4.152 0 001.219-.516 3.267 3.267 0 00.938-.844 2.581 2.581 0 00.469-1.172 3.367 3.367 0 00-.094-1.5 3.191 3.191 0 00-.609-1.266 3.038 3.038 0 00-.938-.8 4.058 4.058 0 00-1.125-.469c-.375-.094-.8-.188-1.172-.281s-.8-.141-1.172-.234a3.03 3.03 0 01-.985-.281 2.042 2.042 0 01-.75-.469 1.66 1.66 0 01-.422-.75 1.111 1.111 0 01.188-1.172 2.579 2.579 0 012.2-.7 3.61 3.61 0 011.875 1.078c.281.281.516.563.75.844.047.047.094.094.188.047l.188-.047a.1.1 0 00.094-.094c0-.047.047-.094 0-.141-.188-.422-.328-.891-.469-1.313-.141-.469-.281-.891-.375-1.36a.1.1 0 00-.094-.094c-.047 0-.094-.047-.141 0a2.655 2.655 0 01-.844.141c-.281 0-.563.047-.844.047a5.979 5.979 0 00-.891.047 3.652 3.652 0 00-.985.188 3.466 3.466 0 00-1.031.469 3.235 3.235 0 00-.75.844 2.959 2.959 0 00-.375 1.078 2.906 2.906 0 00.094 1.266 2.532 2.532 0 00.894 1.411z"/><path data-name="パス 6730" d="M31.083 12.752a1.615 1.615 0 01.422-.047.358.358 0 01.234.094 1.024 1.024 0 01.188.234c.047.141.094.328.188.563l.656 3.282c.047.281.047.469-.094.609a1.629 1.629 0 01-.7.375c-.094.047-.141.094-.094.188l.047.188a.1.1 0 00.094.094c.047 0 .047.047.094.047h.047a4.811 4.811 0 01.656-.188c.188-.047.422-.094.656-.141.328-.047.656-.141.985-.188s.609-.094.891-.141c.047 0 .094-.047.141-.094a.172.172 0 00.047-.141l-.047-.188c0-.094-.094-.141-.187-.141a2.938 2.938 0 01-.75-.094c-.141-.047-.234-.234-.281-.516l-.7-3.516a2.606 2.606 0 01.281-.375c.094-.094.188-.234.234-.281.094-.094.188-.141.234-.188a.678.678 0 01.328-.094c.422-.094.7-.047.891.188a2.563 2.563 0 01.422 1.125l.563 2.719a.891.891 0 01-.047.609 2.918 2.918 0 01-.563.375c-.094.047-.094.094-.094.188l.047.188a.1.1 0 00.094.094.088.088 0 00.141 0c.188-.047.328-.094.563-.141.188-.047.422-.094.609-.141.328-.047.656-.141.984-.188s.609-.094.891-.141c.047 0 .094-.047.141-.094a.172.172 0 00.047-.141l-.047-.188c0-.094-.094-.141-.188-.141a2.938 2.938 0 01-.75-.094c-.141-.047-.234-.234-.281-.516l-.75-3.7a1.941 1.941 0 011.172-.656.879.879 0 01.75.188 1.643 1.643 0 01.516 1.031l.563 2.719a.891.891 0 01-.047.609 2.918 2.918 0 01-.563.375c-.094.047-.094.094-.094.188l.047.188a.1.1 0 00.094.094.088.088 0 00.141 0c.188-.047.328-.094.563-.141.188-.047.422-.094.609-.141.328-.047.656-.141.985-.188s.656-.094.938-.141c.047 0 .094-.047.141-.094a.172.172 0 00.047-.141l-.047-.188c0-.094-.094-.141-.187-.141a3.366 3.366 0 01-.8-.094c-.141-.047-.234-.234-.281-.516l-.609-2.86a2.49 2.49 0 00-.938-1.688 2.067 2.067 0 00-1.688-.281 2.645 2.645 0 00-.563.188 3.154 3.154 0 00-.516.328 3.035 3.035 0 01-.422.375 1.243 1.243 0 00-.234.281 3.032 3.032 0 00-.75-.422 1.91 1.91 0 00-1.031-.047 2.57 2.57 0 00-1.078.516l-.563.563-.094-.469c0-.047-.047-.094-.094-.141a.088.088 0 00-.141 0l-2.2.844c-.094.047-.141.094-.094.188l.047.188c-.01.097.084.144.178.144z"/><path data-name="パス 6731" d="M45.757 12.237a2.313 2.313 0 00-.844.8 1.744 1.744 0 00-.188 1.219 1.588 1.588 0 00.281.7 2.458 2.458 0 00.469.516 1.453 1.453 0 00.609.281 1.165 1.165 0 00.375.047h.281a2.58 2.58 0 001.172-.516 6.691 6.691 0 00.844-.7l.141.141a2.6 2.6 0 00.375.281c.141.094.234.141.375.234a.662.662 0 00.422.047 1.266 1.266 0 00.516-.234l.422-.422a4.912 4.912 0 00.375-.516l.281-.422c.047-.094.047-.188-.047-.234l-.187-.141a.172.172 0 00-.141-.047c-.047 0-.094.047-.141.047a3.03 3.03 0 01-.375.422.644.644 0 01-.375.234.4.4 0 01-.328-.094.842.842 0 01-.188-.422l-.469-3a1.719 1.719 0 00-.375-.891 1.41 1.41 0 00-.656-.516 1.541 1.541 0 00-.8-.188 4.29 4.29 0 00-.8.047 3.515 3.515 0 00-.75.188 2.864 2.864 0 00-.656.328 1.616 1.616 0 00-.469.609 2.494 2.494 0 00-.234.938.166.166 0 00.188.188l1.219.047a.166.166 0 00.188-.188 1.843 1.843 0 01.047-.891.565.565 0 01.375-.422 1.168 1.168 0 01.8.141 1.011 1.011 0 01.422.75l.188 1.078c-.422.094-.8.188-1.219.281a1.63 1.63 0 00-1.123.28zm2.2.141h.328l.234 1.406a3.841 3.841 0 01-.422.375 2.154 2.154 0 01-.75.328 1.229 1.229 0 01-.7-.094.738.738 0 01-.375-.609 1.155 1.155 0 01.047-.563 1.9 1.9 0 01.234-.422 1.636 1.636 0 01.422-.281.945.945 0 01.516-.141 1.563 1.563 0 00.47 0z"/><path data-name="パス 6732" d="M52.79 8.814a.172.172 0 00.141.047 1.544 1.544 0 01.656 0c.047 0 .188.047.234.422l.516 3.8a.76.76 0 01-.094.609 1.712 1.712 0 01-.656.328c-.094.047-.141.094-.141.188l.047.188c0 .047.047.094.094.141.047 0 .047.047.094.047h.047c.234-.047.422-.094.656-.141a2.766 2.766 0 01.656-.094 7 7 0 01.985-.094c.328-.047.656-.047.985-.094.047 0 .094-.047.141-.047s.047-.094.047-.141l-.047-.188c0-.094-.094-.141-.188-.141a1.73 1.73 0 01-.8-.141c-.141-.047-.234-.234-.281-.516l-.422-3.376c.047-.094.141-.188.234-.328a2.6 2.6 0 01.281-.375 2.164 2.164 0 01.328-.328.426.426 0 01.328-.141.344.344 0 01.281.094.426.426 0 01.141.328v.281l-.047.234a.355.355 0 00.094.188.143.143 0 00.188 0l1.078-.844c.047-.047.094-.094.047-.188a1.667 1.667 0 00-.516-1.031 1.291 1.291 0 00-1.031-.281 1.444 1.444 0 00-.563.234c-.188.141-.328.281-.516.422-.141.141-.281.328-.422.469-.047.047-.047.094-.094.141l-.094-.563c0-.047-.047-.094-.094-.141a.088.088 0 00-.141 0l-2.11.656c-.094.047-.141.094-.141.188l.047.188c.005-.047.005-.047.052 0z"/><path data-name="パス 6733" d="M60.572 8.017l.985-.094.469 4.219a1.828 1.828 0 00.375 1.031.946.946 0 00.844.422h.188a1.784 1.784 0 00.7-.234 2.2 2.2 0 00.563-.422 5.137 5.137 0 00.469-.516l.422-.563a.213.213 0 000-.234l-.141-.141a.172.172 0 00-.141-.047c-.047 0-.094.047-.141.094a3.062 3.062 0 01-.516.563.891.891 0 01-.609.234.351.351 0 01-.234-.047.647.647 0 01-.141-.188.677.677 0 01-.094-.328 1.165 1.165 0 01-.047-.375l-.375-3.657 1.828-.188c.094 0 .188-.094.141-.188l-.047-.469c0-.047-.047-.094-.047-.141a.172.172 0 00-.141-.047l-1.828.188-.234-2.2c0-.047-.047-.094-.047-.141a.172.172 0 00-.141-.047h-.188a.124.124 0 00-.141.141c-.047.281-.141.609-.187.891a4.516 4.516 0 01-.328.844 3.328 3.328 0 01-.469.656 1.232 1.232 0 01-.7.328c-.094 0-.141.094-.141.188l.047.281c-.141.093-.047.187.047.187z"/><path data-name="パス 6734" d="M72.856 1.781a3.366 3.366 0 01.8.094.748.748 0 01.422.328 1.76 1.76 0 01.234.656 6.734 6.734 0 01.094 1.125l.375 5.485a10.666 10.666 0 01.047 1.125 1.242 1.242 0 01-.141.656.96.96 0 01-.375.375 2.36 2.36 0 01-.75.234c-.094 0-.141.094-.141.188v.188c0 .047.047.094.047.141a.145.145 0 00.094.047c.375-.047.7-.094 1.078-.141s.7-.047 1.078-.094a11.426 11.426 0 011.266-.047c.422 0 .844-.047 1.266-.047a.166.166 0 00.188-.188v-.188a.124.124 0 00-.141-.141c-.422-.047-.7-.141-.985-.188a.829.829 0 01-.7-.7q-.07-.352-.141-.985l-.188-3.235.516-.047h.563a3.263 3.263 0 01.75.094 1.118 1.118 0 01.516.281 1.686 1.686 0 01.375.563 5.466 5.466 0 01.375.985c.047.094.094.141.188.141h.188c.047 0 .094-.047.141-.047a.172.172 0 00.047-.141 9.149 9.149 0 01-.094-1.078c-.047-.328-.047-.7-.094-1.078-.047-.75-.094-1.5-.094-2.25a.166.166 0 00-.188-.188h-.187a.124.124 0 00-.141.141 2.65 2.65 0 01-.656 1.313 1.923 1.923 0 01-1.219.469l-1.031.047-.234-3.751c.141 0 .234-.047.375-.047s.328-.047.469-.047c.516-.047.985-.047 1.406-.047a4.03 4.03 0 011.125.188 1.89 1.89 0 01.844.656 3.674 3.674 0 01.656 1.36c.047.094.094.141.188.141h.234c.047 0 .094-.047.141-.047a.172.172 0 00.047-.141 5.167 5.167 0 01-.094-.844 5.093 5.093 0 01-.047-.844 3.1 3.1 0 00-.047-.656V.939a.166.166 0 00-.187-.188c-.422.047-.844.094-1.219.141a10.78 10.78 0 01-1.313.094l-3.751.234c-.234 0-.469.047-.7.047h-1.266a.166.166 0 00-.188.188v.188a.209.209 0 00.179.138z"/><path data-name="パス 6735" d="M83.592 11.487a1.755 1.755 0 00.563.328 2.375 2.375 0 00.609.094h.094a2.458 2.458 0 001.219-.375 6.439 6.439 0 00.938-.609l.141.141a2.165 2.165 0 00.328.328 2.6 2.6 0 00.375.281.756.756 0 00.422.141.705.705 0 00.516-.188 3.285 3.285 0 00.469-.375 4.226 4.226 0 00.422-.469l.328-.422a.209.209 0 000-.234l-.141-.188a.234.234 0 00-.281 0c-.141.141-.281.234-.422.375a1.158 1.158 0 01-.422.188.426.426 0 01-.328-.141.792.792 0 01-.141-.469l-.141-3.047a1.847 1.847 0 00-.234-.938 1.755 1.755 0 00-.563-.609 2.071 2.071 0 00-.75-.281 2.288 2.288 0 00-.8-.047 4.62 4.62 0 00-.8.094 4.126 4.126 0 00-.7.234 2.687 2.687 0 00-.516.516 3.235 3.235 0 00-.328.891.172.172 0 00.047.141l.094.094 1.219.188a.166.166 0 00.188-.188 1.785 1.785 0 01.188-.891.581.581 0 01.422-.375 1.033 1.033 0 01.75.234 1.05 1.05 0 01.328.8l.047 1.078c-.422.047-.844.094-1.219.141a5 5 0 00-1.266.328 2.9 2.9 0 00-.938.7 1.712 1.712 0 00-.328 1.219 1.965 1.965 0 00.188.75 2.921 2.921 0 00.423.562zm2.485-2.813a3.62 3.62 0 01.7.094l.047 1.453c-.094.094-.281.188-.469.328a1.453 1.453 0 01-.8.234 1.323 1.323 0 01-.7-.188.73.73 0 01-.281-.656 1.685 1.685 0 01.094-.516 2.6 2.6 0 01.281-.375 1.9 1.9 0 01.422-.234 1.994 1.994 0 01.516-.094.354.354 0 01.189-.046z"/><path data-name="パス 6736" d="M91.327 5.861h1.031l.094 4.219a2.055 2.055 0 00.281 1.078 1.053 1.053 0 00.985.516h.047a1.566 1.566 0 00.7-.141 2.658 2.658 0 00.609-.375c.188-.141.328-.328.516-.469.141-.188.328-.328.469-.516a.213.213 0 000-.234l-.141-.141a.172.172 0 00-.141-.047.172.172 0 00-.141.047 2.811 2.811 0 01-.563.516.992.992 0 01-.656.188.351.351 0 01-.234-.047.647.647 0 01-.141-.188 3 3 0 01-.094-.328c0-.141-.047-.281-.047-.422l-.094-3.657 1.875-.047a.2.2 0 00.188-.188v-.516a.166.166 0 00-.187-.188l-1.875.047-.047-2.2a.166.166 0 00-.188-.188h-.188c-.094 0-.141.047-.188.141-.094.281-.188.563-.281.891a4.159 4.159 0 01-.375.8 3.228 3.228 0 01-.516.609 1.152 1.152 0 01-.7.234.2.2 0 00-.188.188v.281c.002.09.096.137.19.137z"/><path data-name="パス 6737" d="M103.328 11.3c.281 0 .609-.047.891-.047h.891c.422 0 .8.047 1.219.047a11.546 11.546 0 011.219.094.166.166 0 00.188-.188v-.188c0-.094-.047-.188-.141-.188a2.847 2.847 0 01-.8-.188 1.021 1.021 0 01-.422-.328 1.838 1.838 0 01-.234-.609 5.106 5.106 0 01-.047-.891c0-.281.047-.7.094-1.266s.141-1.219.188-1.922c.094-.7.188-1.406.281-2.157.047-.516.141-.985.188-1.406.563 1.406 1.078 2.813 1.594 4.219a54.433 54.433 0 011.5 4.923c0 .094.141.141.188.141.094 0 .141-.047.188-.141.234-.844.516-1.641.8-2.438s.609-1.547.938-2.344c.328-.75.656-1.547.938-2.3.234-.563.469-1.172.7-1.735l.8 6.048a4.291 4.291 0 01.047.75v.516a1.837 1.837 0 01-.094.609.954.954 0 01-.281.328 1.4 1.4 0 01-.469.188 2.353 2.353 0 01-.563.094c-.094 0-.141.094-.141.188v.188a.166.166 0 00.188.188 7.944 7.944 0 001.078-.047h1.078c.375 0 .8.047 1.172.047a9.871 9.871 0 011.172.094c.047 0 .094 0 .094-.047a.172.172 0 00.047-.141V11.2c0-.094-.047-.141-.141-.188a2.482 2.482 0 01-.75-.188 1.3 1.3 0 01-.375-.281.943.943 0 01-.187-.375 4.866 4.866 0 01-.141-.563c-.094-.516-.188-1.125-.281-1.875s-.188-1.453-.281-2.2-.187-1.406-.234-2.016-.094-1.078-.094-1.313a1.243 1.243 0 01.328-.938 1.862 1.862 0 01.938-.328c.094 0 .141-.094.141-.188V.559a.166.166 0 00-.188-.188c-.328 0-.609.047-.938.047h-.938a24.976 24.976 0 01-2.157-.141.166.166 0 00-.187.188v.188a.244.244 0 00.094.188c.141.047.281.141.422.188a1.242 1.242 0 01.281.234c-.375 1.172-.844 2.344-1.313 3.469-.422 1.031-.891 2.063-1.313 3.047l-1.828-5.345c-.047-.188-.141-.375-.188-.563a1.758 1.758 0 01-.047-.516.494.494 0 01.188-.469 1.466 1.466 0 01.469-.234c.094 0 .141-.094.141-.188V.276a.166.166 0 00-.187-.188c-.328 0-.609.047-.891.047h-.891c-.422 0-.844-.047-1.266-.047a11.493 11.493 0 01-1.266-.094.166.166 0 00-.188.188V.37c0 .094.047.141.141.188a2.309 2.309 0 01.8.281 2.657 2.657 0 01.609.375l-.844 5.767-.187 1.266c-.047.422-.141.8-.188 1.219a1.089 1.089 0 01-.188.469 1.427 1.427 0 01-.375.375 1.734 1.734 0 01-.516.234 2.354 2.354 0 01-.563.094c-.094 0-.141.094-.141.188v.188a.172.172 0 00.047.141c.091.145.138.145.184.145z"/><path data-name="パス 6738" d="M120.159 11.533a1.2 1.2 0 00.563.375 2.688 2.688 0 00.656.188 3.029 3.029 0 001.266-.234 4.85 4.85 0 00.985-.516l.141.141a2.036 2.036 0 00.281.328 1.751 1.751 0 00.328.281.756.756 0 00.422.141h.047a1.222 1.222 0 00.516-.141 3.153 3.153 0 00.516-.328c.141-.141.328-.281.469-.422l.375-.375a.209.209 0 000-.234l-.141-.188-.094-.094a.172.172 0 00-.141.047 4.058 4.058 0 01-.469.328.756.756 0 01-.422.141.257.257 0 01-.281-.188.771.771 0 01-.094-.469l.188-3.047a2.633 2.633 0 00-.141-.938 1.788 1.788 0 00-.516-.656 2.57 2.57 0 00-.7-.375 2.381 2.381 0 00-.8-.141h-.8a1.553 1.553 0 00-.7.188 1.378 1.378 0 00-.563.469 2.38 2.38 0 00-.422.844v.141a.1.1 0 00.094.094l1.219.328a.172.172 0 00.141-.047c.047-.047.047-.094.094-.141a1.939 1.939 0 01.234-.891c.188-.281.375-.328.469-.328a1 1 0 01.7.328.97.97 0 01.234.844l-.047 1.078h-1.219a5.913 5.913 0 00-1.313.234 2.343 2.343 0 00-.985.609 1.79 1.79 0 00-.469 1.172 1.944 1.944 0 00.094.75 1.074 1.074 0 00.285.704zm1.172-1.5a.945.945 0 01.141-.516.739.739 0 01.328-.328 1.4 1.4 0 01.469-.188 1.3 1.3 0 01.422-.047h.094a2.19 2.19 0 01.8.141l-.094 1.453a1.679 1.679 0 01-.516.281 2.19 2.19 0 01-.8.141 1.12 1.12 0 01-.656-.234.8.8 0 01-.188-.703z"/><path data-name="パス 6739" d="M128.41 12.33h.656a3.322 3.322 0 01.656.047c.328.047.656.047.985.094l.985.141a.166.166 0 00.188-.188v-.188c0-.094-.047-.141-.141-.188a1.878 1.878 0 01-.75-.328q-.211-.141-.141-.563l.281-3.469a.251.251 0 01.141-.188 1.021 1.021 0 01.375-.234 1.4 1.4 0 01.469-.188 1.759 1.759 0 01.469-.047.965.965 0 01.844.469 1.921 1.921 0 01.188 1.219l-.234 2.625a.777.777 0 01-.234.563 1.847 1.847 0 01-.7.188.15.15 0 00-.141.141v.188a.166.166 0 00.188.188h.609a3.322 3.322 0 01.656.047c.328.047.656.047.985.094s.609.094.891.141h.047c.047 0 .094 0 .094-.047a.172.172 0 00.047-.141v-.193c0-.094-.047-.141-.141-.188a1.967 1.967 0 01-.7-.328c-.141-.094-.141-.281-.141-.563l.234-2.907a3.052 3.052 0 00-.094-1.172 1.514 1.514 0 00-.469-.8 1.855 1.855 0 00-.7-.469 2.738 2.738 0 00-.844-.188 2.116 2.116 0 00-1.125.234c-.234.141-.469.234-.7.375l.047-.516a.166.166 0 00-.188-.188l-2.2.188a.15.15 0 00-.141.141v.188c0 .094.047.188.141.188a1.948 1.948 0 01.609.141c.047 0 .188.094.141.469l-.328 3.8c-.047.281-.094.469-.234.563a2.482 2.482 0 01-.75.188.15.15 0 00-.141.141v.188a.172.172 0 00.047.141c.17.144.217.191.264.191z"/><path data-name="パス 6740" d="M138.35 12.892a1.466 1.466 0 00.516.422 1.526 1.526 0 00.656.188 2.463 2.463 0 001.266-.188 6.9 6.9 0 001.031-.469.244.244 0 01.094.188c.094.141.188.234.281.375a2.165 2.165 0 00.328.328c.141.094.234.188.375.188h.094a2.064 2.064 0 00.469-.094 3.153 3.153 0 00.516-.328 4.1 4.1 0 00.469-.375l.375-.328a.206.206 0 00.047-.234l-.141-.188-.094-.094a.172.172 0 00-.141.047 2.845 2.845 0 00-.469.328.478.478 0 01-.422.094.317.317 0 01-.281-.188.771.771 0 01-.047-.469l.328-3.047a2.209 2.209 0 00-.094-.985 1.855 1.855 0 00-.469-.7 1.765 1.765 0 00-.7-.422 3.97 3.97 0 00-.8-.188 4.548 4.548 0 00-.8-.047 1.566 1.566 0 00-.7.141 1.43 1.43 0 00-.609.469 2.349 2.349 0 00-.469.844v.141a.1.1 0 00.094.094l1.172.375h.141c.047-.047.094-.094.094-.141a2.24 2.24 0 01.281-.844.51.51 0 01.469-.281 1.05 1.05 0 01.7.375.964.964 0 01.188.844l-.141 1.078a11.011 11.011 0 00-1.219-.047 5.931 5.931 0 00-1.313.141 2.026 2.026 0 00-1.031.563 1.805 1.805 0 00-.516 1.125 1.966 1.966 0 00.047.75 4.405 4.405 0 01.425.559zm1.219-1.406a.983.983 0 01.188-.516 1.264 1.264 0 01.375-.328.792.792 0 01.471-.138h.516a3.973 3.973 0 01.8.188l-.141 1.453c-.141.047-.281.141-.516.234a1.5 1.5 0 01-.8.094 1.644 1.644 0 01-.656-.281.734.734 0 01-.237-.706z"/><path data-name="パス 6741" d="M146.929 17.764a2.779 2.779 0 00.891.516 3.892 3.892 0 00.984.281 3.549 3.549 0 00.7.047 2.283 2.283 0 00.563-.047 5.19 5.19 0 001.219-.328 3.208 3.208 0 00.984-.8 2.377 2.377 0 00.516-1.36 4.48 4.48 0 000-1.125 2.161 2.161 0 00-.422-.8 1.716 1.716 0 00-.75-.469 5.483 5.483 0 00-.938-.234c-.141 0-.281-.047-.469-.047l-.938-.047a.7.7 0 01-.328-.047c-.516-.094-.7-.141-.8-.234-.047-.047-.141-.094-.094-.375a.893.893 0 01.234-.469 1.9 1.9 0 01.422-.234 3.025 3.025 0 001.313.563 2.748 2.748 0 001.078-.047 2.316 2.316 0 00.844-.375 1.908 1.908 0 00.563-.656 2.56 2.56 0 00.281-.844 4.291 4.291 0 00.047-.75c0-.188-.047-.375-.047-.563.047 0 .094-.047.141-.047a.467.467 0 01.188-.047.358.358 0 01.234.094c.047.047.047.047.047.141a1.376 1.376 0 01-.141.469c-.047.047 0 .141.047.188s.094.094.188.047l.844-.188c.047 0 .094-.047.141-.094a3 3 0 00.094-.328l.047-.375a.883.883 0 00-.75-.844 1.745 1.745 0 00-.844.094c-.188.094-.422.141-.609.234a3.081 3.081 0 00-.8-.563 3.725 3.725 0 00-1.031-.281 2.082 2.082 0 00-.938.047 2.488 2.488 0 00-.8.375 2.076 2.076 0 00-.563.7 2.829 2.829 0 00-.281.891 3.139 3.139 0 000 .938 1.565 1.565 0 00.234.563 2.142 2.142 0 00-.75.516 1.935 1.935 0 00-.516 1.172 1.55 1.55 0 00.234 1.125 3.226 3.226 0 00-.516.609 2.038 2.038 0 00-.328.938 2.386 2.386 0 00.141 1.172 1.241 1.241 0 00.434.898zm.469-2.3a2.111 2.111 0 01.141-.516 2.278 2.278 0 01.141-.328c.234.047.563.047.938.094s.938.094 1.688.234a2.865 2.865 0 011.36.469.913.913 0 01.281.891.871.871 0 01-.328.609 1.732 1.732 0 01-.656.328 4.618 4.618 0 01-.8.094 3.79 3.79 0 01-.75-.047 3.909 3.909 0 01-.7-.188 2.571 2.571 0 01-.7-.375 1.622 1.622 0 01-.469-.516 1.042 1.042 0 01-.147-.742zm1.922-5.391c.047-.234.094-.422.141-.609a1.562 1.562 0 01.281-.469.878.878 0 01.328-.281.594.594 0 01.281-.047h.141a.579.579 0 01.375.188 1.02 1.02 0 01.234.375c.047.141.094.328.141.516v.609c-.047.234-.094.422-.141.609a1.559 1.559 0 01-.281.469.879.879 0 01-.328.281.662.662 0 01-.422.047.579.579 0 01-.375-.188 1.02 1.02 0 01-.234-.375 7.67 7.67 0 01-.141-.516v-.603z"/><path data-name="パス 6742" d="M156.493 14.721a3.672 3.672 0 00.75.938 2.435 2.435 0 001.172.516 3.094 3.094 0 00.656.047 2.523 2.523 0 001.031-.188 4.869 4.869 0 001.453-.891.206.206 0 00.047-.234l-.187-.281a.36.36 0 00-.141-.094.172.172 0 00-.141.047 3.323 3.323 0 01-.985.516 2.1 2.1 0 01-1.078 0 1.444 1.444 0 01-.563-.234 1.355 1.355 0 01-.516-.516 3.234 3.234 0 01-.328-.891 5.261 5.261 0 010-1.219l4.079.7a.166.166 0 00.188-.188 3.643 3.643 0 00-.516-2.391 2.811 2.811 0 00-1.828-1.078 2.272 2.272 0 00-1.266.094 2.867 2.867 0 00-1.031.609 3.909 3.909 0 00-.75.985 5.353 5.353 0 00-.422 1.219 3.829 3.829 0 00-.047 1.266 4.458 4.458 0 00.423 1.268zm1.406-3.282l.141-.422a4.932 4.932 0 01.328-.516 1.683 1.683 0 01.469-.328.811.811 0 01.469-.047 1.029 1.029 0 01.563.234.729.729 0 01.281.375 1.749 1.749 0 01.094.563v.609z"/><path data-name="パス 6743" d="M163.291 16.784c.234.047.469.047.7.094s.422.094.656.141c.328.094.656.141.938.234.328.094.609.141.891.234h.141c.047-.047.094-.047.094-.094l.047-.188a.244.244 0 00-.094-.188 1.708 1.708 0 01-.609-.375.632.632 0 01-.047-.609l.8-3.516a1.9 1.9 0 01.422-.234.623.623 0 01.328-.141.6.6 0 01.281-.047 1.165 1.165 0 01.375.047c.422.094.656.281.7.516a2.755 2.755 0 01-.047 1.219l-.609 2.719c-.047.188-.141.469-.281.516a2.767 2.767 0 01-.656.094c-.094 0-.141.047-.187.141l-.047.188a.172.172 0 00.047.141c.047.047.094.047.141.094a2.354 2.354 0 01.563.094c.188.047.422.094.609.141.328.094.656.141.938.234.328.094.609.141.891.234h.141c.047-.047.094-.047.094-.094l.047-.188a.244.244 0 00-.094-.188 1.708 1.708 0 01-.609-.375.632.632 0 01-.047-.609l.8-3.7a1.885 1.885 0 011.36-.141.885.885 0 01.609.469 1.732 1.732 0 01.094 1.125l-.609 2.719c-.047.188-.141.469-.281.516a2.768 2.768 0 01-.656.094c-.094 0-.141.047-.188.141l-.047.188a.172.172 0 00.047.141c.047.047.094.047.141.094a2.354 2.354 0 01.563.094c.188.047.422.094.609.141.328.094.656.141.984.234a6.858 6.858 0 00.938.234h.047c.047 0 .047 0 .094-.047s.094-.047.094-.094l.047-.188c0-.094-.047-.188-.094-.188a1.974 1.974 0 01-.656-.422.632.632 0 01-.047-.609l.656-2.86a2.59 2.59 0 00-.188-1.922 2.064 2.064 0 00-1.406-.938 2.283 2.283 0 00-.563-.047 3.227 3.227 0 00-.609.094c-.187.047-.375.141-.563.188a2.283 2.283 0 00-.328.141 2.73 2.73 0 00-.516-.7 1.973 1.973 0 00-.938-.469 2.144 2.144 0 00-1.219.047c-.234.094-.516.188-.75.281l.094-.469a.166.166 0 00-.187-.188l-2.2-.141c-.094 0-.141.047-.187.141l-.047.188c0 .094.047.188.141.188a2.178 2.178 0 01.422.141.366.366 0 01.188.188c.047.047.047.188.047.281a3.463 3.463 0 01-.094.563l-.75 3.282a.629.629 0 01-.328.516 3.06 3.06 0 01-.8.094c-.094 0-.141.047-.187.141l-.047.188a.172.172 0 00.047.141c-.148-.152-.101-.105-.054-.105z"/><path data-name="パス 6744" d="M177.45 20.018a2.243 2.243 0 001.078.609 3.5 3.5 0 00.938.141 3.62 3.62 0 00.7-.094 4.7 4.7 0 001.547-.75c.094-.047.094-.141.047-.234l-.188-.328a.1.1 0 00-.094-.094h-.141a2.307 2.307 0 01-1.031.375 2.891 2.891 0 01-1.078-.094 1.408 1.408 0 01-.516-.281 1.876 1.876 0 01-.469-.563 2.494 2.494 0 01-.234-.938 2.673 2.673 0 01.141-1.172l3.985 1.125h.141c.047-.047.094-.047.094-.141a4.006 4.006 0 00-.281-2.438 2.885 2.885 0 00-1.735-1.266 2.327 2.327 0 00-1.266-.047 3.155 3.155 0 00-1.922 1.453 3.729 3.729 0 00-.516 1.172 3.893 3.893 0 00-.141 1.266 3.522 3.522 0 00.234 1.219 3.58 3.58 0 00.707 1.08zm1.031-4.126a.942.942 0 01.188-.375 1.329 1.329 0 01.422-.469 1.249 1.249 0 01.469-.281.963.963 0 01.516 0 1.07 1.07 0 01.563.281.729.729 0 01.281.375 1.055 1.055 0 01.047.563c0 .188-.047.375-.047.609z"/><path data-name="パス 6745" d="M183.357 21.8a2.32 2.32 0 01.609.188c.188.047.422.141.609.188.328.094.609.234.938.328a7.815 7.815 0 01.938.375h.141a.1.1 0 00.094-.094l.047-.188c.047-.094 0-.188-.094-.188a2.988 2.988 0 01-.656-.469.677.677 0 010-.609l1.125-3.282c0-.047.094-.094.141-.141a2.181 2.181 0 01.422-.141 1.6 1.6 0 01.469-.047 1.387 1.387 0 01.469.094 1 1 0 01.7.656 1.936 1.936 0 01-.141 1.219l-.844 2.532a.645.645 0 01-.375.469 1.758 1.758 0 01-.7 0 .244.244 0 00-.188.094l-.047.188v.141c.047.047.047.094.094.094.188.047.375.094.609.141.188.047.422.141.609.188.328.094.609.234.938.328.281.094.563.234.844.328h.141a.1.1 0 00.094-.094l.047-.188c.047-.094 0-.188-.094-.188a2.289 2.289 0 01-.609-.469c-.094-.094-.094-.328 0-.609l.938-2.766a2.773 2.773 0 00.188-1.172 1.8 1.8 0 00-.234-.891 2.469 2.469 0 00-.563-.656 2.347 2.347 0 00-1.875-.422c-.281.047-.516.141-.75.188l.188-.469v-.141c-.047-.047-.094-.094-.141-.094l-2.157-.375c-.094 0-.187.047-.187.094l-.047.188v.141a.1.1 0 00.094.094 1.621 1.621 0 01.563.328c.047.047.141.141.047.469l-1.219 3.61a.669.669 0 01-.375.469 1.979 1.979 0 01-.75 0 .244.244 0 00-.187.094l-.047.188v.141c.09.091.137.091.184.138z"/><path data-name="パス 6746" d="M193.717 25.785a1.882 1.882 0 00.7.141h.047a2.768 2.768 0 00.656-.094 3.676 3.676 0 00.656-.234c.188-.094.422-.188.656-.281a.171.171 0 00.094-.234l-.047-.188a.1.1 0 00-.094-.094h-.141a7.308 7.308 0 01-.7.281 1.124 1.124 0 01-.656-.094c-.094-.047-.188-.094-.188-.141a.352.352 0 01-.047-.234.8.8 0 01.047-.328c.047-.141.094-.234.141-.375l1.406-3.376 1.735.7a.171.171 0 00.234-.094l.188-.469v-.141a.1.1 0 00-.094-.094l-1.735-.7.844-2.063v-.141a.1.1 0 00-.094-.094l-.188-.094c-.047-.047-.141 0-.188.047a8.14 8.14 0 01-.609.7 2.656 2.656 0 01-.7.563 2.154 2.154 0 01-.75.328 1.392 1.392 0 01-.75-.047.171.171 0 00-.234.094l-.094.234v.141a.1.1 0 00.094.094l.938.375-1.641 3.891a2.286 2.286 0 00-.188 1.078.943.943 0 00.702.943z"/><path data-name="パス 6747" d="M77.45 30.004a.124.124 0 00.141-.141v-.844a.124.124 0 00-.141-.141h-4.313a.124.124 0 00-.141.141v6.095a.124.124 0 00.141.141h1.031a.124.124 0 00.141-.141v-2.435h2.672a.124.124 0 00.141-.141v-.844a.124.124 0 00-.141-.141h-2.672v-1.547z"/><path data-name="パス 6748" d="M79.981 30.895v-.141a.124.124 0 00-.141-.141h-.938a.124.124 0 00-.141.141v4.313a.124.124 0 00.141.141h.984a.124.124 0 00.141-.141v-2.625a.8.8 0 01.8-.844.891.891 0 01.609.234.143.143 0 00.188 0l.75-.656c.047-.047.047-.047.047-.094s0-.094-.047-.094a1.7 1.7 0 00-1.266-.469 2.661 2.661 0 00-1.127.376z"/><path data-name="パス 6749" d="M85.373 30.567a2.055 2.055 0 00-2.157 2.391 2.42 2.42 0 00.609 1.828 2.166 2.166 0 001.547.563 2.074 2.074 0 001.547-.563 2.249 2.249 0 00.609-1.828 2.42 2.42 0 00-.609-1.828 2.385 2.385 0 00-1.546-.563zm.609 3.422a.891.891 0 01-.609.234.987.987 0 01-.609-.234 2.207 2.207 0 010-2.157.865.865 0 01.609-.188 1.173 1.173 0 01.609.188 1.419 1.419 0 01.281 1.078c0 .517-.047.892-.281 1.079z"/><path data-name="パス 6750" d="M89.029 30.755v4.312a.124.124 0 00.141.141h.984a.124.124 0 00.141-.141v-2.625a.766.766 0 01.844-.8.706.706 0 01.8.8v2.625a.124.124 0 00.141.141h.984a.124.124 0 00.141-.141v-2.672a.758.758 0 01.844-.75.706.706 0 01.8.8v2.622a.124.124 0 00.141.141h.985a.124.124 0 00.141-.141v-2.766a1.636 1.636 0 00-.563-1.313 2.005 2.005 0 00-1.313-.422 2.13 2.13 0 00-1.5.563 1.734 1.734 0 00-1.36-.563 1.869 1.869 0 00-1.125.328v-.141a.124.124 0 00-.141-.141h-.938a.211.211 0 00-.147.143z"/><path data-name="パス 6751" d="M101.032 35.255h1.031a.124.124 0 00.141-.141v-2.388h1.031l1.36 2.485c.047.047.094.094.141.094h1.219c.047 0 .094-.047.141-.094a.088.088 0 000-.141l-1.453-2.532a1.744 1.744 0 001.266-1.688c0-1.172-.891-1.922-2.25-1.922h-2.625a.124.124 0 00-.141.141v6.095c-.002.044.092.091.139.091zm2.579-5.251c.609 0 .984.328.984.8 0 .516-.375.8-.984.8h-1.406V30.01z"/><path data-name="パス 6752" d="M109.33 30.567a2.055 2.055 0 00-2.157 2.391 2.42 2.42 0 00.609 1.828 2.166 2.166 0 001.547.563 2.074 2.074 0 001.547-.563 2.249 2.249 0 00.609-1.828 2.42 2.42 0 00-.609-1.828 2.28 2.28 0 00-1.546-.563zm-.609 1.313a.864.864 0 01.609-.188 1.172 1.172 0 01.609.188 2.207 2.207 0 010 2.157.891.891 0 01-.609.234.987.987 0 01-.609-.234 1.419 1.419 0 01-.281-1.078c-.001-.517.046-.892.28-1.079z"/><path data-name="パス 6753" d="M114.721 34.267a1.719 1.719 0 01-1.266-.422.143.143 0 00-.188 0l-.656.563c-.047.047-.047.047-.047.094s0 .094.047.094a3.121 3.121 0 002.11.656c1.313 0 2.157-.563 2.157-1.547 0-.563-.281-1.266-1.594-1.36l-.75-.047c-.516-.047-.516-.234-.516-.328 0-.234.281-.422.7-.422a1.742 1.742 0 011.078.281.143.143 0 00.188 0l.609-.563a.145.145 0 00.047-.094c0-.047 0-.094-.047-.094a3.078 3.078 0 00-1.875-.516c-1.172 0-1.969.609-1.969 1.453 0 .563.281 1.266 1.547 1.36l.75.047c.516.047.516.234.516.375.049.333-.419.47-.841.47z"/><path data-name="パス 6754" d="M120.44 35.302a2.661 2.661 0 001.922-.7.145.145 0 00.047-.094c0-.047 0-.094-.047-.094l-.609-.516a.143.143 0 00-.188 0 1.345 1.345 0 01-1.078.422.971.971 0 01-1.078-.891h2.954a.124.124 0 00.141-.141v-.375a2.08 2.08 0 00-2.2-2.25 2.322 2.322 0 00.141 4.641zm-1.078-2.86a1.1 1.1 0 01.094-.375.879.879 0 01.844-.469.855.855 0 01.8.469 1.1 1.1 0 01.094.375z"/><path data-name="パス 6755" d="M125.223 30.895V29.02a.124.124 0 00-.141-.141h-.985a.124.124 0 00-.141.141v6.095a.124.124 0 00.141.141h.985a.124.124 0 00.141-.141v-2.672a.756.756 0 01.844-.8.706.706 0 01.8.8v2.672a.124.124 0 00.141.141h.985a.124.124 0 00.141-.141v-2.813a1.652 1.652 0 00-1.828-1.735 1.824 1.824 0 00-1.083.328z"/><path data-name="パス 6756" d="M130.942 30.614h-.985a.124.124 0 00-.141.141v4.313a.124.124 0 00.141.141h.985a.124.124 0 00.141-.141v-4.313c.047-.047-.047-.141-.141-.141z"/><path data-name="パス 6757" d="M131.13 28.974a.124.124 0 00-.141-.141h-1.031a.124.124 0 00-.141.141v.938a.124.124 0 00.141.141h1.031a.124.124 0 00.141-.141z"/><path data-name="パス 6758" d="M134.083 30.895v-.141a.124.124 0 00-.141-.141h-.938a.124.124 0 00-.141.141v6.095a.124.124 0 00.141.141h.985a.124.124 0 00.141-.141v-1.875a1.693 1.693 0 001.125.328 1.8 1.8 0 001.266-.422 2.624 2.624 0 00.609-1.969 2.455 2.455 0 00-.609-1.922 1.8 1.8 0 00-1.266-.422 1.747 1.747 0 00-1.172.328zm.891.75c.609 0 .844.328.844 1.266 0 .8-.141 1.313-.844 1.313-.609 0-.844-.328-.844-1.313-.047-.891.187-1.266.844-1.266z"/><path data-name="長方形 23024" d="M57.947 32.021h8.908v1.031h-8.908z"/><path data-name="長方形 23025" d="M142.381 32.021h8.908v1.031h-8.908z"/></g><g data-name="グループ 8738"><path data-name="パス 6759" d="M34.646 42.428a5.6 5.6 0 002.907-5.016 4.742 4.742 0 00-1.031-3.094 3.385 3.385 0 00-2.86-1.36 5.367 5.367 0 00-3.188 1.172 18.287 18.287 0 00-4.829 5.813c-.75-.234-2.438-.7-6.329-1.782a27.869 27.869 0 00-7.126-1.219 14.2 14.2 0 00-1.453.094 8.739 8.739 0 00-6.564 4.173 13.139 13.139 0 00-2.016 7.267 14.075 14.075 0 00.141 2.016 7.933 7.933 0 002.11 4.548 5.42 5.42 0 004.032 1.782q3.165 0 5.345-3.376a1.415 1.415 0 00.234-.891c0-1.641-1.031-1.735-1.313-1.735a.835.835 0 00-.75.469l-.047.047c-.891 2.063-2.157 3.047-3.844 3.047a3.324 3.324 0 01-2.485-1.125 5.7 5.7 0 01-1.406-3.422 11.008 11.008 0 01-.047-1.219 8.466 8.466 0 011.688-5.438 6.631 6.631 0 014.032-2.391 9.621 9.621 0 011.735-.141 31.605 31.605 0 016.329.891c3.516.7 5.3 1.078 6.235 1.266a149.491 149.491 0 00-6.564 18.847c-2.11 7.079-4.313 12.283-6.61 15.518-2.719 3.8-5.954 5.626-9.939 5.532-.188 0-1.031.047-1.031 1.313 0 1.594.469 2.438 1.406 2.485.281 0 .563.047.891.047 4.079 0 7.595-2.157 10.455-6.423 2.672-3.985 5.2-10.548 7.5-19.55a88.386 88.386 0 015.954-17.346c3.843.561 6.656.279 8.438-.799zm-6.939-2.063a16.652 16.652 0 012.3-3.047c1.36-1.406 2.579-2.11 3.7-2.11.891 0 1.688.234 1.688 1.922 0 1.641-.891 2.625-2.766 3.141a12.157 12.157 0 01-4.922.094z"/><path data-name="パス 6760" d="M35.396 53.304a3.185 3.185 0 00-.516 1.594 1.974 1.974 0 001.172 1.782 3.574 3.574 0 011.735 1.36 1.119 1.119 0 00.985.609.883.883 0 00.375-.094c.281-.094.7-.375.7-1.219a4.1 4.1 0 00-.094-.75c-.844-2.954-1.782-4.266-3-4.266-.748 0-1.217.75-1.357.984z"/><path data-name="パス 6761" d="M69.433 56.727a3.574 3.574 0 011.735 1.36 1.119 1.119 0 00.985.609.883.883 0 00.375-.094c.281-.094.7-.375.7-1.219a4.1 4.1 0 00-.094-.75c-.844-2.954-1.782-4.266-3-4.266-.75 0-1.219.75-1.406.985a3.185 3.185 0 00-.516 1.594 2.077 2.077 0 001.221 1.781z"/><path data-name="パス 6762" d="M144.304 56.727a3.574 3.574 0 011.735 1.36 1.119 1.119 0 00.984.609.883.883 0 00.375-.094 1.176 1.176 0 00.7-1.219 4.1 4.1 0 00-.094-.75c-.844-2.954-1.781-4.266-3-4.266-.75 0-1.219.75-1.406.985a3.185 3.185 0 00-.516 1.594 2.169 2.169 0 001.222 1.781z"/><path data-name="パス 6763" d="M204.735 70.182a1.008 1.008 0 00-1.078.469 29.778 29.778 0 01-8.3 9.142 13.225 13.225 0 01-7.314 2.766 4.544 4.544 0 01-3.985-1.735 6.044 6.044 0 01-1.125-3.751 9.023 9.023 0 01.375-2.391 10.933 10.933 0 002.766.375 10.533 10.533 0 004.969-1.219 6.55 6.55 0 003.188-3.188 5.039 5.039 0 00.375-1.735c0-1.219-.516-3.329-3.985-3.329-2.344 0-4.876 1.36-7.5 3.985a14.061 14.061 0 00-3.094 4.407 33.708 33.708 0 01-5.345 5.954c-2.719 2.3-4.266 2.672-5.063 2.532-.938-.141-1.453-1.969-1.453-5.016a27.27 27.27 0 01.469-4.97 138.132 138.132 0 007.5-13.783 57.311 57.311 0 004.313-11.392 10.079 10.079 0 00.281-2.157c0-1.875-1.031-2.11-1.5-2.11a3.917 3.917 0 00-2.438 1.36c-2.625 2.391-5.063 6.61-7.407 12.986a65.206 65.206 0 00-4.032 16.69c-4.548 6.7-7.032 8.111-8.345 8.111a1.628 1.628 0 01-1.313-.7 3.972 3.972 0 01-.75-2.532 11.53 11.53 0 01.094-1.219 14.884 14.884 0 013.141-7.407c1.36-1.641 2.625-2.485 3.657-2.438.656.047.844.281.938.656a1.156 1.156 0 001.078.938 1.689 1.689 0 001.313-.75 2.239 2.239 0 00.563-1.36c0-1.031-.891-1.594-2.625-1.735-2.2-.188-4.594 1.078-7.314 3.844a15.884 15.884 0 00-3.516 5.11 29.869 29.869 0 01-4.407 4.829c-2.25 1.922-4.219 2.907-5.907 2.907-1.406 0-3.047-.422-3.047-3.61 0-2.485 1.172-6.142 3.469-10.877a3.557 3.557 0 00.422-1.36 1.124 1.124 0 00-.469-.938 1.94 1.94 0 00-1.688.047 3.338 3.338 0 00-1.969 1.735l-.375 1.36c-.422.938-.8 1.875-1.125 2.766a38.116 38.116 0 01-6.751 8.158 14.075 14.075 0 01-3.985 2.578 2.528 2.528 0 00.328-.609 7.394 7.394 0 00.8-3.469 21.906 21.906 0 00-1.078-5.2 20.289 20.289 0 01-.985-4.735 2.672 2.672 0 01.047-.609 3.811 3.811 0 00.7-2.438c-.047-1.641-1.125-1.735-1.453-1.735a1.406 1.406 0 00-1.172.7l-.047.094-.047.094a9.507 9.507 0 00-.469 2.438 17.612 17.612 0 01-2.25 4.5 4.564 4.564 0 00-.234.516c-1.641 2.579-3.657 3.751-6.095 3.516a4.012 4.012 0 01-2.625-1.828 9.854 9.854 0 01-1.735-3.422 2.042 2.042 0 00-.985-1.453 1.127 1.127 0 00-.7-.094 1.494 1.494 0 00.656-1.36c0-.328-.141-1.172-1.406-1.36a5.745 5.745 0 00-.891-.094c-2.3 0-4.688 1.172-7.126 3.422a13.348 13.348 0 00-3.469 5.3 38.945 38.945 0 01-4.5 5.157c-2.157 2.016-3.938 3-5.345 3a1.655 1.655 0 01-.656-.141c-.281-.094-.328-.563-.328-.938a13.043 13.043 0 011.266-4.641 10.556 10.556 0 011.5-2.907l.047-.047a3.352 3.352 0 00.891-1.453 2.513 2.513 0 00.188-1.594 2.048 2.048 0 00-.844-1.266c-.844-.609-1.406-.187-1.547 0a1.193 1.193 0 01-.891.281 2.253 2.253 0 01-1.453-.469c-.422-.328-.563-.609-.563-.8a4.428 4.428 0 00.563-2.344c-.141-1.782-1.172-1.969-1.594-1.969a1.466 1.466 0 00-1.172.609 2.481 2.481 0 00-.422 1.406c0 .188.047.469.094.891a4.923 4.923 0 01.047.516 8.181 8.181 0 01-1.172 2.719c-.094.094-.141.188-.234.281a38.015 38.015 0 01-7.032 8.767c-2.25 1.922-4.219 2.907-5.907 2.907-1.406 0-3.047-.422-3.047-3.61 0-2.485 1.172-6.142 3.469-10.877a3.558 3.558 0 00.422-1.36 1.124 1.124 0 00-.469-.938 1.94 1.94 0 00-1.688.047 3.338 3.338 0 00-1.969 1.735l-.375 1.36c-.422.938-.8 1.875-1.125 2.766a36.117 36.117 0 01-7.032 8.392c-2.719 2.3-4.219 2.672-5.016 2.532-.75-.094-1.219-1.594-1.219-4.032a50.068 50.068 0 011.406-9.845c6.47-9.751 10.033-16.831 10.924-21.566.328-1.922.234-3.047-.281-3.657a1.426 1.426 0 00-1.125-.516c-.8 0-1.688.563-2.86 1.875-2.016 2.2-3.985 5.86-6.142 11.3a97.527 97.527 0 00-4.407 14.721 36.908 36.908 0 01-6.985 8.626c-2.25 1.922-4.219 2.907-5.907 2.907-1.406 0-3.047-.422-3.047-3.61 0-2.485 1.172-6.142 3.469-10.877a3.557 3.557 0 00.422-1.36 1.123 1.123 0 00-.469-.938 1.94 1.94 0 00-1.688.047 3.338 3.338 0 00-1.969 1.735l-.375 1.36c-1.688 3.7-2.579 6.892-2.579 9.47a6.822 6.822 0 001.782 5.016 5.6 5.6 0 003.985 1.5c3.891 0 7.97-3.047 12.471-9.189-.047.563-.047 1.125-.047 1.735q0 7.454 3.8 7.454c3.61 0 7.361-2.625 11.486-7.923-.047.469-.094.938-.094 1.36a6.822 6.822 0 001.782 5.016 5.6 5.6 0 003.985 1.5c4.407 0 9.1-3.891 14.346-11.908a1.107 1.107 0 00.375-.422c.422-.75.8-1.36 1.078-1.922a3.228 3.228 0 00.609.516 4.815 4.815 0 002.157.891c-2.157 3.844-3.235 6.845-3.235 9.283 0 2.579 1.313 3.376 2.438 3.563a6.248 6.248 0 001.313.141c2.907 0 6.095-2.063 9.611-6.282v.234c0 4.641 2.485 5.767 4.548 5.907h.422c2.532 0 4.782-1.406 6.7-4.172a14.778 14.778 0 002.438-6.095 6.212 6.212 0 004.735 3c3.422.188 6.282-1.641 8.439-5.438.047-.141.141-.234.141-.375.141-.187.234-.422.375-.656a29 29 0 00.563 3.188 21.191 21.191 0 01.563 4.735c-.141 3.235-1.36 3.282-1.735 3.329-.7.047-1.125-.8-1.313-2.438a.923.923 0 00-.938-.891 1.841 1.841 0 00-1.36.75 1.906 1.906 0 00-.609 1.5c.188 1.5 1.219 3.376 5.3 3.563h.469c3.7 0 7.595-2.625 11.721-7.923-.047.469-.094.938-.094 1.36a6.822 6.822 0 001.782 5.016 5.6 5.6 0 003.985 1.5c3.094 0 6.329-1.922 9.8-5.86v.328a6.034 6.034 0 001.219 3.891 4.065 4.065 0 003.329 1.641c2.813 0 5.86-2.3 9.283-7.032.047 4.641 1.313 7.032 3.7 7.032 3.282 0 6.751-2.2 10.455-6.61.281 3.141 2.063 6.61 8.533 6.61a14.247 14.247 0 007.126-2.2c3.657-2.157 7.079-5.72 10.173-10.549a1.512 1.512 0 00.281-.844c.086-.237-.289-.565-.617-.659zm-14.3-2.485c.985 0 1.36.375 1.36 1.36a3.054 3.054 0 01-.281 1.219 4.367 4.367 0 01-1.969 1.781 7.719 7.719 0 01-3.7.891 7.284 7.284 0 01-1.735-.187 12.3 12.3 0 012.344-3.047 7.214 7.214 0 013.141-1.922 2.893 2.893 0 01.841-.095zm-12.049-22.128a4.538 4.538 0 00.422-.328v.094a5.434 5.434 0 01-.187 1.313c-1.125 5.157-4.079 11.955-8.861 20.253a93.783 93.783 0 012.813-10.173c1.876-5.672 3.845-9.424 5.814-11.159zM98.973 76.511a11.446 11.446 0 012.672-6.095c1.36-1.594 2.719-2.438 4.032-2.485a1.811 1.811 0 011.266.516l.047.047a1.227 1.227 0 00.8.234h-.047c-.844.469-1.266.985-1.266 1.641v.094a.978.978 0 00.516.75 5.1 5.1 0 01.281 2.3 10.489 10.489 0 01-.7 3.8c-1.266 3.282-2.954 4.876-5.11 4.876a2.52 2.52 0 01-.985-.234c-1.125-.516-1.641-1.828-1.641-3.891a9.467 9.467 0 01.135-1.553zM59.025 45.756a7.38 7.38 0 01.609-.469v.141a8.592 8.592 0 01-.094.985 35 35 0 01-3.282 8.3c-1.266 2.485-2.672 5.11-4.266 7.736 2.345-9.051 4.689-14.63 7.033-16.693z"/></g></g><path data-name="パス 6764" d="M205.638 15.073h.724c.716 0 1.121.207 1.121.767 0 .526-.371.811-1.112.811h-.733zm-.738-.575v4.466h.733v-1.796h.811l1.117 1.794h.767l-1.181-1.88a1.273 1.273 0 001.034-1.284c0-.966-.733-1.3-1.733-1.3zm1.462 6.024a3.739 3.739 0 01-3.742-3.742 3.739 3.739 0 013.742-3.742 3.739 3.739 0 013.738 3.742 3.739 3.739 0 01-3.738 3.742zm0-7.76a4.022 4.022 0 00-4.018 4.018 4.022 4.022 0 004.018 4.018 4.022 4.022 0 004.018-4.018 4.022 4.022 0 00-4.018-4.018z"/></g></svg>